<svg id="svg" version="1.1" width="400" height="400" viewBox="0 0 400 400" xmlns="http://www.w3.org/2000/svg" xmlns:xlink="http://www.w3.org/1999/xlink" ><g id="svgg"><path id="path0" d="" stroke="none" fill="#000000" fill-rule="evenodd"></path><path id="path1" d="" stroke="none" fill="#330000" fill-rule="evenodd"></path><path id="path2" d="M233.000 13.697 C 234.020 14.299,234.872 14.440,234.574 13.958 C 234.448 13.754,234.190 13.683,234.000 13.800 C 233.810 13.917,233.542 13.830,233.404 13.607 C 233.266 13.383,232.938 13.205,232.676 13.212 C 232.414 13.219,232.560 13.437,233.000 13.697 M368.133 114.218 C 368.133 114.538,368.221 114.713,368.327 114.606 C 368.434 114.500,368.774 114.725,369.083 115.106 C 369.589 115.732,369.603 115.714,369.220 114.922 C 368.684 113.814,368.133 113.457,368.133 114.218 M380.571 145.681 C 380.407 145.966,380.418 146.068,380.596 145.906 C 380.775 145.745,381.158 145.925,381.448 146.306 C 381.737 146.688,381.980 146.797,381.987 146.549 C 382.010 145.755,380.916 145.084,380.571 145.681 M113.840 368.465 C 113.952 368.647,114.440 368.987,114.922 369.220 C 115.714 369.603,115.732 369.589,115.106 369.083 C 114.725 368.774,114.500 368.434,114.606 368.327 C 114.713 368.221,114.538 368.133,114.218 368.133 C 113.897 368.133,113.727 368.282,113.840 368.465 M145.428 380.755 C 145.163 381.183,146.316 382.218,146.667 381.866 C 146.803 381.730,146.620 381.506,146.260 381.368 C 145.899 381.229,145.704 380.955,145.826 380.758 C 145.948 380.561,145.957 380.400,145.847 380.400 C 145.737 380.400,145.549 380.560,145.428 380.755 " stroke="none" fill="#550000" fill-rule="evenodd"></path><path id="path3" d="M176.812 12.384 C 175.836 13.001,176.516 13.123,177.800 12.561 C 178.710 12.163,178.807 12.033,178.200 12.024 C 177.760 12.018,177.135 12.180,176.812 12.384 M157.626 16.169 C 157.239 16.635,157.302 16.698,157.977 16.522 C 158.430 16.404,158.800 16.148,158.800 15.953 C 158.800 15.414,158.154 15.532,157.626 16.169 M247.470 17.439 C 247.728 18.111,248.935 18.204,248.712 17.535 C 248.626 17.279,248.264 17.027,247.906 16.974 C 247.493 16.914,247.334 17.083,247.470 17.439 M251.614 18.369 C 252.391 18.521,253.246 18.781,253.514 18.947 C 253.781 19.112,254.000 19.078,254.000 18.870 C 254.000 18.414,252.570 17.996,251.200 18.051 C 250.450 18.082,250.553 18.161,251.614 18.369 M256.500 19.876 C 256.885 19.976,257.515 19.976,257.900 19.876 C 258.285 19.775,257.970 19.693,257.200 19.693 C 256.430 19.693,256.115 19.775,256.500 19.876 M136.602 21.998 C 135.988 22.676,135.972 22.800,136.495 22.800 C 136.836 22.800,137.228 22.504,137.367 22.143 C 137.745 21.158,137.418 21.096,136.602 21.998 M124.851 26.360 C 124.549 26.551,124.369 26.871,124.451 27.070 C 124.533 27.270,124.915 27.111,125.300 26.717 C 126.034 25.965,125.786 25.767,124.851 26.360 M282.000 30.000 C 282.507 30.440,283.013 30.800,283.123 30.800 C 283.234 30.800,282.998 30.440,282.600 30.000 C 282.202 29.560,281.696 29.200,281.477 29.200 C 281.257 29.200,281.493 29.560,282.000 30.000 M290.812 34.251 C 290.805 34.499,291.052 34.911,291.359 35.166 C 292.067 35.754,293.701 36.086,293.387 35.579 C 293.258 35.371,292.812 35.200,292.396 35.200 C 291.980 35.200,291.456 34.885,291.232 34.500 C 291.008 34.115,290.819 34.003,290.812 34.251 M105.992 35.810 C 105.714 36.145,105.566 36.500,105.664 36.598 C 105.762 36.696,106.146 36.421,106.517 35.988 C 106.889 35.555,107.036 35.200,106.845 35.200 C 106.654 35.200,106.270 35.474,105.992 35.810 M295.709 37.600 C 296.948 38.575,297.958 38.713,297.204 37.804 C 296.932 37.477,296.550 37.307,296.355 37.428 C 296.160 37.549,296.000 37.457,296.000 37.224 C 296.000 36.991,295.706 36.800,295.346 36.800 C 294.862 36.800,294.956 37.008,295.709 37.600 M95.800 42.400 C 95.191 43.073,95.174 43.200,95.691 43.200 C 96.030 43.200,96.401 42.840,96.516 42.400 C 96.631 41.960,96.680 41.600,96.625 41.600 C 96.569 41.600,96.198 41.960,95.800 42.400 M93.338 43.817 C 92.991 44.721,93.302 44.769,94.100 43.933 C 94.692 43.313,94.706 43.200,94.187 43.200 C 93.851 43.200,93.468 43.478,93.338 43.817 M313.404 49.607 C 313.542 49.830,313.824 49.909,314.030 49.781 C 314.237 49.654,314.514 49.831,314.646 50.175 C 314.778 50.519,315.074 50.800,315.305 50.800 C 315.535 50.800,315.398 50.440,315.000 50.000 C 314.265 49.188,312.944 48.862,313.404 49.607 M83.000 51.600 C 82.602 52.040,82.478 52.400,82.724 52.400 C 82.970 52.400,83.365 52.040,83.600 51.600 C 83.835 51.160,83.960 50.800,83.876 50.800 C 83.792 50.800,83.398 51.160,83.000 51.600 M324.000 58.000 C 324.423 58.790,325.200 59.101,325.200 58.480 C 325.200 58.059,324.331 57.200,323.906 57.200 C 323.722 57.200,323.765 57.560,324.000 58.000 M325.843 59.369 C 326.082 59.990,327.200 60.565,327.200 60.067 C 327.200 59.670,326.330 58.800,325.933 58.800 C 325.763 58.800,325.723 59.056,325.843 59.369 M72.400 60.233 C 71.850 60.539,71.580 60.797,71.800 60.807 C 72.020 60.818,71.775 61.181,71.256 61.613 C 70.736 62.046,70.476 62.400,70.677 62.400 C 70.878 62.400,71.654 61.770,72.400 61.000 C 73.882 59.470,73.882 59.411,72.400 60.233 M329.200 62.324 C 329.200 62.539,329.485 62.824,329.833 62.957 C 330.223 63.107,330.406 63.018,330.308 62.725 C 330.109 62.127,329.200 61.798,329.200 62.324 M336.400 70.000 C 336.400 70.220,336.546 70.400,336.724 70.400 C 336.902 70.400,337.607 70.947,338.290 71.615 C 339.318 72.619,339.496 72.688,339.320 72.015 C 339.203 71.567,338.858 71.200,338.553 71.200 C 338.249 71.200,338.000 70.949,338.000 70.643 C 338.000 70.336,337.715 69.976,337.367 69.843 C 336.514 69.515,336.400 69.534,336.400 70.000 M61.672 71.234 C 61.398 71.672,61.042 71.949,60.880 71.850 C 60.719 71.750,60.361 72.148,60.085 72.734 C 59.640 73.679,59.752 73.632,61.072 72.313 C 61.890 71.496,62.472 70.739,62.365 70.632 C 62.258 70.524,61.946 70.795,61.672 71.234 M58.964 73.941 C 59.124 74.201,58.975 74.511,58.625 74.646 C 57.989 74.890,57.750 75.600,58.304 75.600 C 58.918 75.600,59.611 74.054,59.130 73.757 C 58.851 73.584,58.787 73.655,58.964 73.941 M51.362 83.258 C 50.604 84.112,50.605 84.114,51.500 83.644 C 51.995 83.384,52.400 82.998,52.400 82.786 C 52.400 82.218,52.209 82.305,51.362 83.258 M43.338 93.817 C 42.991 94.721,43.302 94.769,44.100 93.933 C 44.692 93.313,44.706 93.200,44.187 93.200 C 43.851 93.200,43.468 93.478,43.338 93.817 M42.225 95.972 C 41.555 96.713,41.560 96.736,42.363 96.526 C 42.823 96.405,43.200 96.058,43.200 95.753 C 43.200 95.021,43.057 95.054,42.225 95.972 M35.592 106.210 C 34.844 107.111,35.278 107.215,36.170 106.348 C 36.593 105.937,36.751 105.600,36.519 105.600 C 36.287 105.600,35.870 105.874,35.592 106.210 M26.138 125.017 C 25.791 125.921,26.102 125.969,26.900 125.133 C 27.492 124.513,27.506 124.400,26.987 124.400 C 26.651 124.400,26.268 124.678,26.138 125.017 M374.400 127.951 C 374.400 128.198,374.591 128.400,374.824 128.400 C 375.057 128.400,375.144 128.568,375.017 128.772 C 374.891 128.977,374.970 129.258,375.193 129.396 C 375.838 129.794,375.665 128.552,375.000 128.000 C 374.585 127.656,374.400 127.641,374.400 127.951 M24.860 128.380 C 24.948 128.644,25.151 128.846,25.310 128.830 C 25.788 128.781,25.696 128.232,25.180 128.060 C 24.916 127.972,24.772 128.116,24.860 128.380 M21.828 136.769 C 21.064 137.613,21.351 137.872,22.349 137.240 C 22.651 137.049,22.826 136.678,22.739 136.416 C 22.636 136.107,22.313 136.233,21.828 136.769 M16.080 157.680 C 15.516 158.244,15.453 158.800,15.953 158.800 C 16.148 158.800,16.401 158.440,16.516 158.000 C 16.760 157.066,16.722 157.038,16.080 157.680 M383.200 157.325 C 383.200 157.409,383.560 157.893,384.000 158.400 C 384.624 159.119,384.800 159.180,384.800 158.675 C 384.800 158.319,384.440 157.835,384.000 157.600 C 383.560 157.365,383.200 157.241,383.200 157.325 M12.160 177.419 C 11.794 178.874,12.154 178.988,12.683 177.585 C 12.929 176.933,12.970 176.400,12.773 176.400 C 12.576 176.400,12.300 176.858,12.160 177.419 M388.101 181.800 C 388.105 182.680,388.187 182.993,388.283 182.495 C 388.379 181.998,388.375 181.278,388.275 180.895 C 388.175 180.513,388.096 180.920,388.101 181.800 M388.120 191.200 C 388.120 192.410,388.195 192.905,388.287 192.300 C 388.378 191.695,388.378 190.705,388.287 190.100 C 388.195 189.495,388.120 189.990,388.120 191.200 M388.162 200.200 C 388.162 203.720,388.224 205.106,388.298 203.281 C 388.372 201.456,388.372 198.576,388.297 196.881 C 388.222 195.186,388.161 196.680,388.162 200.200 M388.114 209.000 C 388.117 210.100,388.195 210.503,388.287 209.895 C 388.379 209.286,388.377 208.386,388.282 207.895 C 388.187 207.403,388.111 207.900,388.114 209.000 M388.093 212.800 C 388.093 213.570,388.175 213.885,388.276 213.500 C 388.376 213.115,388.376 212.485,388.276 212.100 C 388.175 211.715,388.093 212.030,388.093 212.800 M388.093 218.400 C 388.093 219.170,388.175 219.485,388.276 219.100 C 388.376 218.715,388.376 218.085,388.276 217.700 C 388.175 217.315,388.093 217.630,388.093 218.400 M387.484 222.800 C 387.369 223.239,387.438 223.700,387.638 223.823 C 387.837 223.946,388.000 223.587,388.000 223.024 C 388.000 221.798,387.772 221.699,387.484 222.800 M385.333 234.278 C 385.333 234.577,385.517 234.761,385.742 234.686 C 386.379 234.474,386.485 233.733,385.878 233.733 C 385.578 233.733,385.333 233.978,385.333 234.278 M384.253 241.375 C 383.733 242.168,383.716 242.330,384.168 242.157 C 384.481 242.037,384.846 241.656,384.978 241.312 C 385.377 240.272,384.951 240.309,384.253 241.375 M18.051 251.200 C 17.996 252.570,18.414 254.000,18.870 254.000 C 19.078 254.000,19.112 253.781,18.947 253.514 C 18.781 253.246,18.521 252.391,18.369 251.614 C 18.161 250.553,18.082 250.450,18.051 251.200 M381.600 253.133 C 381.600 253.390,381.330 253.600,381.000 253.600 C 380.670 253.600,380.400 253.910,380.400 254.289 C 380.400 254.883,380.520 254.857,381.278 254.100 C 381.761 253.617,382.031 253.097,381.878 252.944 C 381.725 252.792,381.600 252.877,381.600 253.133 M19.600 257.813 C 19.600 258.149,19.878 258.532,20.217 258.662 C 21.121 259.009,21.169 258.698,20.333 257.900 C 19.713 257.308,19.600 257.294,19.600 257.813 M379.039 258.738 C 378.900 258.961,378.982 259.265,379.220 259.412 C 379.835 259.793,380.232 259.272,379.718 258.758 C 379.431 258.471,379.207 258.464,379.039 258.738 M372.550 275.787 C 372.426 276.110,372.417 276.605,372.531 276.887 C 372.644 277.169,372.751 277.010,372.768 276.533 C 372.786 276.057,373.025 275.576,373.300 275.465 C 373.692 275.307,373.689 275.256,373.287 275.232 C 373.006 275.214,372.674 275.464,372.550 275.787 M371.675 278.687 C 371.194 279.285,370.803 280.050,370.806 280.387 C 370.810 280.813,370.963 280.740,371.306 280.149 C 371.578 279.681,372.031 278.916,372.314 278.449 C 373.026 277.274,372.720 277.387,371.675 278.687 M29.200 281.522 C 29.200 281.731,29.448 282.108,29.752 282.360 C 30.055 282.612,30.417 283.383,30.555 284.073 C 30.693 284.763,30.891 285.242,30.996 285.137 C 31.318 284.815,30.492 282.435,29.828 281.771 C 29.482 281.425,29.200 281.314,29.200 281.522 M370.100 281.888 C 369.825 281.986,369.600 282.335,369.600 282.662 C 369.600 283.167,369.698 283.159,370.248 282.610 C 370.952 281.906,370.890 281.606,370.100 281.888 M368.700 284.957 C 367.969 285.512,367.784 286.000,368.304 286.000 C 368.471 286.000,368.832 285.640,369.107 285.200 C 369.689 284.268,369.644 284.240,368.700 284.957 M367.058 287.787 C 366.650 288.096,366.388 288.565,366.476 288.829 C 366.568 289.105,366.931 288.860,367.327 288.255 C 368.114 287.053,368.088 287.007,367.058 287.787 M36.800 295.346 C 36.800 295.706,36.991 296.000,37.224 296.000 C 37.457 296.000,37.549 296.160,37.428 296.355 C 37.307 296.550,37.477 296.932,37.804 297.204 C 38.713 297.958,38.575 296.948,37.600 295.709 C 37.008 294.956,36.800 294.862,36.800 295.346 M362.400 296.543 C 362.400 296.868,362.175 297.224,361.900 297.335 C 361.586 297.462,361.568 297.549,361.851 297.568 C 362.545 297.617,363.325 296.524,362.819 296.212 C 362.589 296.069,362.400 296.218,362.400 296.543 M40.032 301.053 C 40.011 301.619,40.303 301.983,40.900 302.133 C 41.668 302.327,41.707 302.290,41.165 301.880 C 40.816 301.616,40.425 301.130,40.296 300.800 C 40.133 300.380,40.054 300.456,40.032 301.053 M41.646 303.286 C 41.621 303.663,41.960 304.165,42.400 304.400 C 42.942 304.690,43.200 304.695,43.200 304.414 C 43.200 304.186,42.943 304.000,42.629 304.000 C 42.315 304.000,41.976 303.685,41.876 303.300 C 41.707 302.654,41.689 302.653,41.646 303.286 M45.681 309.182 C 46.233 310.066,46.622 309.955,46.262 309.017 C 46.132 308.678,45.838 308.400,45.609 308.400 C 45.346 308.400,45.372 308.687,45.681 309.182 M352.388 311.414 C 352.112 311.747,352.002 312.135,352.143 312.276 C 352.284 312.418,352.400 312.337,352.400 312.096 C 352.400 311.855,352.715 311.596,353.100 311.520 C 353.558 311.429,353.643 311.282,353.345 311.095 C 353.095 310.938,352.665 311.081,352.388 311.414 M50.388 315.578 C 51.017 316.753,51.592 316.946,51.063 315.804 C 50.808 315.255,50.459 314.805,50.286 314.803 C 50.113 314.801,50.159 315.150,50.388 315.578 M346.700 318.867 C 346.167 319.425,346.133 319.600,346.557 319.600 C 346.864 319.600,347.228 319.304,347.367 318.943 C 347.717 318.031,347.520 318.008,346.700 318.867 M342.000 324.600 C 341.717 324.941,341.576 325.309,341.686 325.419 C 341.796 325.529,342.117 325.341,342.400 325.000 C 342.683 324.659,342.824 324.291,342.714 324.181 C 342.604 324.071,342.283 324.259,342.000 324.600 M340.267 326.267 C 339.884 326.649,339.938 327.200,340.357 327.200 C 340.554 327.200,340.818 326.930,340.945 326.600 C 341.179 325.990,340.753 325.781,340.267 326.267 M333.500 333.562 C 331.575 335.507,330.005 337.256,330.012 337.449 C 330.019 337.642,330.208 337.485,330.432 337.100 C 330.656 336.715,331.101 336.400,331.420 336.400 C 331.739 336.400,332.000 336.215,332.000 335.989 C 332.000 335.764,332.805 334.774,333.789 333.789 C 334.774 332.805,335.764 332.000,335.989 332.000 C 336.215 332.000,336.400 331.739,336.400 331.420 C 336.400 331.101,336.715 330.656,337.100 330.432 C 337.485 330.208,337.620 330.025,337.400 330.025 C 337.180 330.026,335.425 331.618,333.500 333.562 M69.493 337.200 C 69.870 337.640,70.316 338.000,70.485 338.000 C 70.654 338.000,70.484 337.640,70.107 337.200 C 69.730 336.760,69.284 336.400,69.115 336.400 C 68.946 336.400,69.116 336.760,69.493 337.200 M73.055 340.600 C 73.182 340.930,73.549 341.200,73.871 341.200 C 74.379 341.200,74.378 341.120,73.857 340.600 C 73.527 340.270,73.160 340.000,73.041 340.000 C 72.922 340.000,72.929 340.270,73.055 340.600 M326.267 340.267 C 325.781 340.753,325.990 341.179,326.600 340.945 C 326.930 340.818,327.200 340.554,327.200 340.357 C 327.200 339.938,326.649 339.884,326.267 340.267 M318.700 346.883 C 317.966 347.635,318.214 347.833,319.149 347.240 C 319.451 347.049,319.631 346.729,319.549 346.530 C 319.467 346.330,319.085 346.489,318.700 346.883 M82.406 348.258 C 82.403 348.510,83.102 349.064,83.961 349.489 C 84.944 349.975,85.451 350.078,85.332 349.766 C 85.227 349.495,84.662 349.152,84.075 349.004 C 83.488 348.857,82.874 348.526,82.710 348.268 C 82.492 347.925,82.411 347.923,82.406 348.258 M311.230 352.564 C 310.909 352.950,310.894 353.211,311.181 353.388 C 311.411 353.531,311.600 353.382,311.600 353.057 C 311.600 352.732,311.825 352.376,312.100 352.265 C 312.414 352.138,312.432 352.051,312.149 352.032 C 311.901 352.014,311.487 352.254,311.230 352.564 M91.400 354.800 C 91.798 355.240,92.351 355.600,92.629 355.600 C 92.906 355.600,93.224 355.825,93.335 356.100 C 93.493 356.492,93.544 356.489,93.568 356.087 C 93.586 355.806,93.285 355.459,92.900 355.318 C 92.515 355.176,92.056 354.822,91.880 354.530 C 91.704 354.239,91.361 354.000,91.118 354.000 C 90.875 354.000,91.002 354.360,91.400 354.800 M95.200 357.524 C 95.200 357.739,95.485 358.024,95.833 358.157 C 96.223 358.307,96.406 358.218,96.308 357.925 C 96.109 357.327,95.200 356.998,95.200 357.524 M297.200 361.933 C 297.200 362.190,296.919 362.400,296.576 362.400 C 296.226 362.400,296.072 362.592,296.224 362.838 C 296.408 363.137,296.695 363.077,297.124 362.648 C 297.469 362.302,297.628 361.895,297.476 361.743 C 297.324 361.591,297.200 361.677,297.200 361.933 M287.681 367.219 C 287.181 368.019,287.193 368.023,288.185 367.373 C 289.318 366.631,289.439 366.400,288.696 366.400 C 288.419 366.400,287.962 366.769,287.681 367.219 M284.887 368.809 C 284.419 369.559,284.441 369.581,285.191 369.113 C 285.636 368.835,286.000 368.471,286.000 368.304 C 286.000 367.726,285.391 368.003,284.887 368.809 M117.200 369.924 C 117.200 370.139,117.485 370.424,117.833 370.557 C 118.223 370.707,118.406 370.618,118.308 370.325 C 118.109 369.727,117.200 369.398,117.200 369.924 M281.855 370.200 C 281.729 370.530,281.722 370.800,281.841 370.800 C 281.960 370.800,282.327 370.530,282.657 370.200 C 283.178 369.680,283.179 369.600,282.671 369.600 C 282.349 369.600,281.982 369.870,281.855 370.200 M278.562 371.838 C 277.628 372.673,277.586 372.771,278.349 372.338 C 280.925 370.877,281.010 370.812,280.362 370.806 C 280.011 370.803,279.201 371.267,278.562 371.838 M120.599 371.598 C 120.734 371.817,121.240 372.203,121.722 372.456 C 122.594 372.913,122.595 372.910,121.838 372.058 C 121.075 371.198,120.136 370.850,120.599 371.598 M275.192 373.300 C 274.816 374.076,274.829 374.110,275.288 373.547 C 275.581 373.187,276.175 372.803,276.610 372.693 C 277.326 372.512,277.317 372.488,276.514 372.446 C 275.962 372.417,275.464 372.739,275.192 373.300 M271.824 374.613 C 271.388 374.942,271.269 375.200,271.552 375.200 C 271.830 375.200,272.327 374.930,272.657 374.600 C 273.424 373.833,272.842 373.842,271.824 374.613 M258.639 379.138 C 258.500 379.361,258.582 379.665,258.820 379.812 C 259.435 380.193,259.832 379.672,259.318 379.158 C 259.031 378.871,258.807 378.864,258.639 379.138 M253.600 380.967 C 253.600 381.278,253.375 381.624,253.100 381.735 C 252.811 381.852,252.785 381.950,253.038 381.968 C 253.279 381.986,253.802 381.640,254.200 381.200 C 254.851 380.481,254.857 380.400,254.262 380.400 C 253.898 380.400,253.600 380.655,253.600 380.967 M157.600 383.986 C 157.600 384.198,157.948 384.558,158.374 384.786 C 159.546 385.413,159.686 385.286,158.800 384.400 C 157.915 383.515,157.600 383.406,157.600 383.986 M241.200 384.400 C 240.650 384.830,240.412 385.186,240.671 385.191 C 241.115 385.199,242.400 384.144,242.400 383.771 C 242.400 383.498,242.259 383.572,241.200 384.400 M233.733 385.878 C 233.733 386.177,233.917 386.361,234.142 386.286 C 234.779 386.074,234.885 385.333,234.278 385.333 C 233.978 385.333,233.733 385.578,233.733 385.878 M222.600 387.600 C 221.896 387.902,221.935 387.947,222.924 387.972 C 223.576 387.988,223.944 387.832,223.800 387.600 C 223.664 387.380,223.518 387.213,223.476 387.228 C 223.434 387.244,223.040 387.411,222.600 387.600 M180.900 388.276 C 181.285 388.376,181.915 388.376,182.300 388.276 C 182.685 388.175,182.370 388.093,181.600 388.093 C 180.830 388.093,180.515 388.175,180.900 388.276 M186.500 388.276 C 186.885 388.376,187.515 388.376,187.900 388.276 C 188.285 388.175,187.970 388.093,187.200 388.093 C 186.430 388.093,186.115 388.175,186.500 388.276 M190.100 388.287 C 190.705 388.378,191.695 388.378,192.300 388.287 C 192.905 388.195,192.410 388.120,191.200 388.120 C 189.990 388.120,189.495 388.195,190.100 388.287 M197.119 388.298 C 198.944 388.372,201.824 388.372,203.519 388.297 C 205.214 388.222,203.720 388.161,200.200 388.162 C 196.680 388.162,195.294 388.224,197.119 388.298 M208.105 388.287 C 208.714 388.379,209.614 388.377,210.105 388.282 C 210.597 388.187,210.100 388.111,209.000 388.114 C 207.900 388.117,207.497 388.195,208.105 388.287 M212.100 388.276 C 212.485 388.376,213.115 388.376,213.500 388.276 C 213.885 388.175,213.570 388.093,212.800 388.093 C 212.030 388.093,211.715 388.175,212.100 388.276 M217.700 388.276 C 218.085 388.376,218.715 388.376,219.100 388.276 C 219.485 388.175,219.170 388.093,218.400 388.093 C 217.630 388.093,217.315 388.175,217.700 388.276 " stroke="none" fill="#6d0000" fill-rule="evenodd"></path><path id="path4" d="M177.400 12.734 C 176.313 13.232,174.966 13.451,173.200 13.415 C 169.975 13.351,166.754 13.827,166.386 14.423 C 166.131 14.835,164.122 15.081,160.300 15.166 C 159.248 15.190,158.800 15.379,158.800 15.800 C 158.800 16.130,158.575 16.415,158.300 16.434 C 153.964 16.732,152.995 16.883,152.727 17.304 C 152.554 17.577,152.409 17.643,152.406 17.451 C 152.403 17.259,152.166 17.296,151.881 17.533 C 151.595 17.770,150.650 17.996,149.781 18.036 C 147.340 18.147,146.455 18.420,146.322 19.102 C 146.234 19.553,145.643 19.755,144.200 19.825 C 141.491 19.957,141.600 19.925,141.600 20.600 C 141.600 21.052,141.114 21.200,139.627 21.200 C 138.005 21.200,137.609 21.342,137.400 22.000 C 137.226 22.550,136.795 22.800,136.023 22.800 C 134.061 22.800,132.400 23.281,132.400 23.850 C 132.400 24.177,131.953 24.411,131.300 24.428 C 129.901 24.464,128.732 24.920,128.770 25.416 C 128.801 25.818,128.635 25.868,127.000 25.950 C 126.450 25.978,125.646 26.354,125.213 26.787 C 124.781 27.219,123.791 27.616,123.013 27.668 C 121.956 27.740,121.600 27.944,121.600 28.482 C 121.600 29.009,121.289 29.200,120.433 29.200 C 118.943 29.200,117.942 29.582,118.226 30.042 C 118.348 30.239,118.302 30.413,118.124 30.430 C 116.604 30.569,115.698 30.929,115.122 31.621 C 114.749 32.069,114.344 32.427,114.222 32.418 C 112.850 32.309,111.997 32.472,112.202 32.803 C 112.451 33.206,111.832 33.578,110.614 33.757 C 110.257 33.809,109.611 34.155,109.178 34.526 C 108.745 34.897,108.121 35.200,107.792 35.200 C 107.462 35.200,106.884 35.560,106.507 36.000 C 106.130 36.440,105.547 36.804,105.211 36.809 C 104.875 36.814,104.150 37.170,103.600 37.600 C 103.050 38.030,102.381 38.386,102.114 38.391 C 101.847 38.396,101.435 38.760,101.200 39.200 C 100.965 39.640,100.452 40.000,100.061 40.000 C 99.671 40.000,99.002 40.324,98.575 40.720 C 98.149 41.116,97.485 41.561,97.100 41.708 C 96.715 41.855,96.400 42.251,96.400 42.587 C 96.400 42.933,96.052 43.200,95.600 43.200 C 95.160 43.200,94.440 43.560,94.000 44.000 C 93.560 44.440,92.840 44.800,92.400 44.800 C 91.853 44.800,91.600 45.067,91.600 45.643 C 91.600 46.220,91.415 46.414,91.012 46.260 C 90.688 46.136,90.148 46.309,89.812 46.646 C 89.475 46.982,89.200 47.157,89.200 47.036 C 89.200 46.914,88.555 47.441,87.766 48.207 C 86.977 48.973,86.077 49.600,85.766 49.600 C 85.455 49.600,85.200 49.870,85.200 50.200 C 85.200 50.530,84.936 50.800,84.614 50.800 C 84.292 50.800,83.835 51.160,83.600 51.600 C 83.365 52.040,82.930 52.400,82.635 52.400 C 82.340 52.400,81.354 53.102,80.443 53.960 C 79.532 54.818,78.520 55.622,78.193 55.747 C 77.867 55.872,77.600 56.251,77.600 56.587 C 77.600 56.939,77.249 57.200,76.776 57.200 C 76.323 57.200,76.043 57.345,76.152 57.523 C 76.346 57.836,74.530 59.427,74.041 59.373 C 73.909 59.358,73.471 59.765,73.068 60.277 C 72.665 60.789,72.166 61.103,71.958 60.974 C 71.750 60.846,71.630 60.972,71.690 61.256 C 71.751 61.539,71.395 61.955,70.900 62.180 C 70.405 62.405,70.000 62.834,70.000 63.132 C 70.000 63.431,69.640 63.769,69.200 63.884 C 68.471 64.075,68.224 64.487,68.353 65.300 C 68.379 65.465,68.265 65.579,68.100 65.553 C 67.275 65.422,66.800 65.659,66.800 66.200 C 66.800 66.530,66.530 66.800,66.200 66.800 C 65.659 66.800,65.422 67.275,65.553 68.100 C 65.579 68.265,65.465 68.379,65.300 68.353 C 64.462 68.220,64.000 68.464,64.000 69.037 C 64.000 69.388,63.678 69.759,63.284 69.862 C 62.891 69.965,62.389 70.443,62.170 70.925 C 61.950 71.406,61.539 71.751,61.256 71.690 C 60.972 71.630,60.846 71.750,60.974 71.958 C 61.103 72.166,60.711 72.727,60.104 73.204 C 59.497 73.682,59.090 74.120,59.200 74.178 C 59.310 74.236,59.050 74.748,58.623 75.317 C 58.196 75.887,57.701 76.262,57.523 76.152 C 57.345 76.043,57.200 76.323,57.200 76.776 C 57.200 77.249,56.939 77.600,56.587 77.600 C 56.251 77.600,55.872 77.867,55.747 78.193 C 55.622 78.520,54.818 79.532,53.960 80.443 C 53.102 81.354,52.400 82.340,52.400 82.635 C 52.400 82.930,52.040 83.365,51.600 83.600 C 51.160 83.835,50.800 84.292,50.800 84.614 C 50.800 84.936,50.530 85.200,50.200 85.200 C 49.870 85.200,49.600 85.455,49.600 85.766 C 49.600 86.077,48.973 86.977,48.207 87.766 C 47.441 88.555,46.914 89.200,47.036 89.200 C 47.157 89.200,46.982 89.475,46.646 89.812 C 46.309 90.148,46.136 90.688,46.260 91.012 C 46.414 91.415,46.220 91.600,45.643 91.600 C 45.067 91.600,44.800 91.853,44.800 92.400 C 44.800 92.840,44.440 93.560,44.000 94.000 C 43.560 94.440,43.200 95.160,43.200 95.600 C 43.200 96.052,42.933 96.400,42.587 96.400 C 42.251 96.400,41.855 96.715,41.708 97.100 C 41.561 97.485,41.116 98.149,40.720 98.575 C 40.324 99.002,40.000 99.767,40.000 100.275 C 40.000 100.784,39.775 101.206,39.500 101.213 C 38.963 101.226,36.800 104.529,36.800 105.336 C 36.800 105.603,36.440 106.130,36.000 106.507 C 35.560 106.884,35.200 107.462,35.200 107.792 C 35.200 108.121,34.897 108.745,34.526 109.178 C 34.155 109.611,33.809 110.257,33.757 110.614 C 33.578 111.832,33.206 112.451,32.803 112.202 C 32.572 112.059,32.400 112.391,32.400 112.976 C 32.400 114.374,32.345 114.513,31.524 115.200 C 30.915 115.709,30.566 116.642,30.430 118.124 C 30.413 118.302,30.239 118.348,30.042 118.226 C 29.582 117.942,29.200 118.943,29.200 120.433 C 29.200 121.289,29.009 121.600,28.482 121.600 C 27.944 121.600,27.740 121.956,27.668 123.013 C 27.616 123.791,27.219 124.781,26.787 125.213 C 26.354 125.646,25.978 126.450,25.950 127.000 C 25.868 128.635,25.818 128.801,25.416 128.770 C 24.920 128.732,24.464 129.901,24.428 131.300 C 24.411 131.953,24.177 132.400,23.850 132.400 C 23.281 132.400,22.800 134.061,22.800 136.023 C 22.800 136.795,22.550 137.226,22.000 137.400 C 21.342 137.609,21.200 138.005,21.200 139.627 C 21.200 141.114,21.052 141.600,20.600 141.600 C 19.925 141.600,19.957 141.491,19.825 144.200 C 19.755 145.643,19.553 146.234,19.102 146.322 C 18.420 146.455,18.147 147.340,18.036 149.781 C 17.996 150.650,17.770 151.595,17.533 151.881 C 17.296 152.166,17.259 152.403,17.451 152.406 C 17.643 152.409,17.577 152.554,17.304 152.727 C 16.883 152.995,16.732 153.964,16.434 158.300 C 16.415 158.575,16.130 158.800,15.800 158.800 C 15.379 158.800,15.190 159.248,15.166 160.300 C 15.081 164.122,14.835 166.131,14.423 166.386 C 13.827 166.754,13.351 169.975,13.415 173.200 C 13.450 174.950,13.230 176.323,12.742 177.400 C 11.677 179.753,11.603 222.055,12.662 223.568 C 13.153 224.268,13.357 225.612,13.451 228.754 C 13.535 231.587,13.747 233.128,14.089 233.398 C 14.852 234.002,14.986 234.763,15.154 239.471 C 15.179 240.171,15.464 241.007,15.786 241.329 C 16.124 241.666,16.476 243.079,16.617 244.658 C 16.752 246.166,17.029 247.460,17.234 247.534 C 17.438 247.608,17.503 247.833,17.379 248.034 C 17.255 248.235,17.327 248.400,17.539 248.400 C 17.751 248.400,18.049 249.345,18.201 250.500 C 18.352 251.655,18.729 252.999,19.038 253.486 C 19.347 253.973,19.600 255.008,19.600 255.786 C 19.600 256.587,19.904 257.518,20.300 257.933 C 21.097 258.768,21.124 258.860,21.262 261.200 C 21.334 262.413,21.560 262.969,22.033 263.093 C 22.495 263.214,22.768 263.841,22.911 265.110 C 23.032 266.184,23.401 267.158,23.797 267.447 C 24.170 267.720,24.534 268.451,24.606 269.072 C 24.837 271.081,25.097 271.802,25.553 271.700 C 25.976 271.605,26.172 272.587,26.027 274.067 C 25.990 274.434,26.330 274.851,26.780 274.994 C 27.354 275.176,27.600 275.596,27.600 276.394 C 27.600 277.939,27.973 278.800,28.643 278.800 C 28.992 278.800,29.200 279.237,29.200 279.971 C 29.200 280.616,29.485 281.428,29.834 281.777 C 30.182 282.125,30.641 283.038,30.852 283.805 C 31.064 284.572,31.482 285.200,31.781 285.200 C 32.123 285.200,32.250 285.489,32.122 285.977 C 31.993 286.470,32.285 287.121,32.917 287.753 C 33.466 288.302,33.835 288.831,33.738 288.929 C 33.374 289.293,34.107 291.200,34.612 291.200 C 34.900 291.200,35.258 291.752,35.406 292.427 C 35.554 293.102,35.922 293.749,36.222 293.864 C 36.772 294.075,37.436 295.513,37.269 296.130 C 37.220 296.311,37.352 296.353,37.562 296.223 C 38.055 295.919,38.381 296.462,38.489 297.765 C 38.536 298.335,38.877 298.898,39.248 299.015 C 39.618 299.133,40.033 299.677,40.170 300.225 C 40.308 300.772,40.776 301.576,41.210 302.010 C 41.645 302.445,42.000 303.070,42.000 303.400 C 42.000 303.730,42.250 304.000,42.555 304.000 C 42.873 304.000,43.223 304.597,43.373 305.394 C 43.516 306.161,43.847 306.746,44.108 306.694 C 44.368 306.642,44.640 306.987,44.713 307.459 C 44.786 307.932,45.195 308.410,45.622 308.522 C 46.050 308.634,46.400 309.057,46.400 309.463 C 46.401 309.868,46.851 310.723,47.400 311.362 C 47.950 312.001,48.400 312.676,48.400 312.862 C 48.400 313.048,48.670 313.200,49.000 313.200 C 49.333 313.200,49.600 313.556,49.600 314.000 C 49.600 314.440,49.849 314.800,50.153 314.800 C 50.611 314.800,50.998 315.451,51.346 316.810 C 51.420 317.098,52.453 318.317,53.300 319.117 C 53.685 319.480,54.000 320.008,54.000 320.289 C 54.000 320.570,54.360 320.800,54.800 320.800 C 55.252 320.800,55.600 321.067,55.600 321.413 C 55.600 321.749,55.843 322.118,56.139 322.232 C 56.436 322.346,57.090 322.996,57.593 323.677 C 58.097 324.357,58.259 324.772,57.954 324.598 C 57.649 324.425,57.760 324.660,58.200 325.122 C 58.640 325.584,59.204 326.195,59.454 326.481 C 59.703 326.766,60.457 327.439,61.130 327.976 C 61.803 328.513,62.269 329.089,62.165 329.256 C 62.062 329.423,62.343 329.755,62.789 329.994 C 63.235 330.233,63.600 330.671,63.600 330.967 C 63.600 331.264,63.960 331.601,64.400 331.716 C 64.840 331.831,65.200 332.191,65.200 332.516 C 65.200 332.841,65.560 333.201,66.000 333.316 C 66.440 333.431,66.800 333.791,66.800 334.116 C 66.800 334.441,67.160 334.801,67.600 334.916 C 68.040 335.031,68.400 335.412,68.400 335.763 C 68.400 336.113,68.596 336.400,68.836 336.400 C 69.288 336.400,70.624 337.521,73.244 340.100 C 74.082 340.925,74.936 341.600,75.141 341.600 C 75.347 341.600,75.618 341.870,75.745 342.200 C 75.871 342.530,76.341 342.800,76.787 342.800 C 77.347 342.800,77.600 343.062,77.600 343.643 C 77.600 344.235,77.782 344.416,78.213 344.250 C 78.620 344.094,78.952 344.348,79.203 345.008 C 79.410 345.553,79.855 346.000,80.190 346.000 C 80.526 346.000,80.800 346.274,80.800 346.610 C 80.800 346.945,81.250 347.391,81.800 347.600 C 82.350 347.809,82.800 348.150,82.800 348.358 C 82.800 348.566,83.332 348.853,83.982 348.996 C 84.632 349.139,85.267 349.582,85.394 349.981 C 85.521 350.380,85.930 350.683,86.303 350.654 C 86.676 350.624,86.985 350.870,86.990 351.200 C 86.996 351.530,87.405 351.978,87.900 352.195 C 88.395 352.412,88.800 352.727,88.800 352.895 C 88.800 353.063,89.070 353.200,89.400 353.200 C 89.730 353.200,90.000 353.380,90.000 353.600 C 90.000 353.820,90.366 354.000,90.813 354.000 C 91.259 354.000,91.729 354.270,91.855 354.600 C 91.982 354.930,92.342 355.200,92.656 355.200 C 92.969 355.200,93.376 355.605,93.559 356.100 C 93.742 356.595,93.961 356.942,94.046 356.872 C 94.340 356.628,96.400 357.582,96.400 357.962 C 96.400 358.172,96.805 358.406,97.300 358.482 C 97.795 358.557,98.158 358.832,98.106 359.092 C 98.054 359.353,98.633 359.682,99.392 359.825 C 100.205 359.977,100.865 360.376,100.998 360.794 C 101.122 361.185,101.770 361.614,102.438 361.748 C 103.106 361.881,103.552 362.154,103.429 362.353 C 103.171 362.770,104.099 363.200,105.256 363.200 C 105.691 363.200,105.949 363.360,105.828 363.555 C 105.624 363.885,106.756 365.120,107.061 364.900 C 107.532 364.560,108.800 364.893,108.800 365.357 C 108.800 365.998,109.650 366.400,111.003 366.400 C 111.578 366.400,111.993 366.671,112.076 367.099 C 112.150 367.484,112.478 367.816,112.805 367.838 C 113.132 367.860,113.805 367.906,114.300 367.939 C 114.795 367.973,115.200 368.251,115.200 368.557 C 115.200 369.171,116.041 369.600,117.245 369.600 C 117.674 369.600,118.127 369.865,118.251 370.189 C 118.376 370.513,119.083 370.892,119.824 371.031 C 120.565 371.170,121.380 371.535,121.635 371.842 C 121.890 372.149,122.304 372.400,122.555 372.400 C 122.806 372.400,123.639 372.732,124.406 373.139 C 125.173 373.545,126.317 374.004,126.948 374.158 C 127.580 374.313,128.358 374.701,128.677 375.020 C 128.996 375.339,129.846 375.600,130.567 375.600 C 131.368 375.600,132.157 375.910,132.600 376.400 C 133.075 376.925,133.832 377.200,134.800 377.200 C 135.750 377.200,136.525 377.475,136.975 377.972 C 137.359 378.397,138.152 378.759,138.737 378.777 C 140.816 378.839,141.200 378.939,141.200 379.417 C 141.200 379.952,142.963 380.400,145.074 380.400 C 145.829 380.400,146.349 380.560,146.228 380.755 C 145.829 381.401,146.971 381.871,149.181 381.970 C 150.658 382.036,151.525 382.283,151.868 382.734 C 152.147 383.100,152.380 383.243,152.387 383.051 C 152.394 382.859,152.625 382.869,152.900 383.074 C 153.175 383.278,154.446 383.491,155.724 383.547 C 157.292 383.615,158.275 383.875,158.744 384.344 C 159.265 384.865,160.228 385.064,162.590 385.139 C 165.004 385.216,165.862 385.399,166.258 385.920 C 166.542 386.294,166.780 386.443,166.787 386.251 C 166.794 386.059,167.025 386.074,167.300 386.284 C 167.575 386.494,169.569 386.685,171.731 386.709 C 174.201 386.737,175.883 386.937,176.257 387.247 C 177.301 388.114,220.329 388.484,222.500 387.645 C 223.105 387.411,223.603 387.350,223.606 387.510 C 223.609 387.669,223.744 387.597,223.906 387.348 C 224.082 387.078,225.985 386.820,228.643 386.707 C 232.941 386.524,234.211 386.265,233.832 385.652 C 233.650 385.358,235.063 385.176,238.418 385.062 C 239.418 385.028,240.678 384.711,241.218 384.357 C 242.019 383.832,243.814 383.484,248.067 383.029 C 248.213 383.013,248.483 382.836,248.667 382.636 C 248.864 382.420,248.756 382.403,248.400 382.595 C 247.983 382.819,247.922 382.787,248.200 382.490 C 248.420 382.254,249.500 382.016,250.600 381.961 C 253.084 381.836,253.600 381.663,253.600 380.957 C 253.600 380.402,254.067 380.312,256.880 380.325 C 257.762 380.328,258.569 380.072,258.880 379.689 C 259.314 379.152,259.307 379.102,258.838 379.385 C 258.497 379.590,258.370 379.572,258.515 379.338 C 258.646 379.126,259.613 378.907,260.663 378.853 C 262.617 378.752,263.768 378.195,263.366 377.545 C 263.242 377.344,263.289 377.206,263.470 377.237 C 265.209 377.540,267.171 377.121,267.400 376.400 C 267.598 375.777,268.005 375.600,269.244 375.600 C 270.245 375.600,271.131 375.322,271.638 374.850 C 272.081 374.438,272.922 374.100,273.506 374.100 C 274.146 374.100,274.793 373.762,275.133 373.250 C 275.479 372.729,276.120 372.400,276.788 372.400 C 277.387 372.400,278.293 372.040,278.800 371.600 C 279.307 371.160,280.151 370.800,280.674 370.800 C 281.197 370.800,281.729 370.530,281.855 370.200 C 281.986 369.859,282.583 369.600,283.239 369.600 C 283.960 369.600,284.581 369.300,284.893 368.800 C 285.168 368.360,285.789 368.000,286.274 368.000 C 286.758 368.000,287.403 367.645,287.707 367.212 C 288.032 366.747,288.806 366.382,289.590 366.322 C 290.473 366.255,290.984 365.981,291.108 365.510 C 291.210 365.120,291.618 364.800,292.014 364.800 C 293.162 364.800,294.000 364.360,294.000 363.757 C 294.000 363.430,294.412 363.200,295.000 363.200 C 295.550 363.200,296.000 363.020,296.000 362.800 C 296.000 362.580,296.270 362.400,296.600 362.400 C 296.930 362.400,297.200 362.220,297.200 362.000 C 297.200 361.780,297.548 361.600,297.973 361.600 C 298.398 361.600,298.860 361.240,299.000 360.800 C 299.177 360.242,299.605 360.000,300.413 360.000 C 301.162 360.000,301.723 359.717,302.000 359.200 C 302.235 358.760,302.739 358.400,303.118 358.400 C 303.497 358.400,304.032 358.040,304.307 357.600 C 304.582 357.160,305.074 356.800,305.400 356.800 C 305.726 356.800,306.218 356.440,306.493 356.000 C 306.768 355.560,307.225 355.200,307.509 355.200 C 307.793 355.200,308.122 354.948,308.240 354.639 C 308.359 354.331,309.070 353.963,309.822 353.822 C 310.574 353.681,311.146 353.363,311.094 353.116 C 311.042 352.868,311.429 352.442,311.954 352.169 C 312.479 351.896,313.019 351.521,313.154 351.336 C 313.392 351.011,313.758 350.756,316.097 349.289 C 316.701 348.910,317.196 348.404,317.197 348.164 C 317.199 347.925,317.650 347.523,318.200 347.273 C 318.750 347.022,319.200 346.654,319.200 346.455 C 319.200 346.256,319.560 345.999,320.000 345.884 C 320.440 345.769,320.800 345.408,320.800 345.081 C 320.800 344.754,321.257 344.372,321.816 344.232 C 322.375 344.091,322.725 343.801,322.592 343.588 C 322.460 343.374,322.800 343.028,323.347 342.820 C 323.895 342.612,325.198 341.622,326.243 340.621 C 327.288 339.619,328.302 338.800,328.495 338.800 C 328.689 338.800,328.736 338.620,328.600 338.400 C 328.464 338.180,328.723 338.000,329.176 338.000 C 329.629 338.000,330.000 337.796,330.000 337.546 C 330.000 337.296,331.596 335.496,333.546 333.546 C 335.496 331.596,337.296 330.000,337.546 330.000 C 337.796 330.000,338.000 329.629,338.000 329.176 C 338.000 328.723,338.180 328.464,338.400 328.600 C 338.620 328.736,338.800 328.698,338.800 328.515 C 338.800 328.332,339.628 327.286,340.640 326.191 C 341.653 325.096,342.642 323.784,342.840 323.276 C 343.037 322.768,343.374 322.460,343.588 322.592 C 343.801 322.725,344.087 322.392,344.222 321.854 C 344.357 321.316,344.813 320.785,345.234 320.675 C 345.655 320.565,346.000 320.188,346.000 319.837 C 346.000 319.487,346.184 319.200,346.409 319.200 C 346.633 319.200,347.022 318.750,347.273 318.200 C 347.523 317.650,347.925 317.199,348.164 317.197 C 348.404 317.196,348.910 316.701,349.289 316.097 C 350.756 313.758,351.011 313.392,351.336 313.154 C 351.521 313.019,351.896 312.479,352.169 311.954 C 352.442 311.429,352.868 311.042,353.116 311.094 C 353.363 311.146,353.681 310.574,353.822 309.822 C 353.963 309.070,354.331 308.359,354.639 308.240 C 354.948 308.122,355.200 307.793,355.200 307.509 C 355.200 307.225,355.560 306.768,356.000 306.493 C 356.440 306.218,356.800 305.726,356.800 305.400 C 356.800 305.074,357.160 304.582,357.600 304.307 C 358.040 304.032,358.400 303.497,358.400 303.118 C 358.400 302.739,358.760 302.235,359.200 302.000 C 359.717 301.723,360.000 301.162,360.000 300.413 C 360.000 299.605,360.242 299.177,360.800 299.000 C 361.240 298.860,361.600 298.398,361.600 297.973 C 361.600 297.548,361.780 297.200,362.000 297.200 C 362.220 297.200,362.400 296.930,362.400 296.600 C 362.400 296.270,362.580 296.000,362.800 296.000 C 363.020 296.000,363.200 295.550,363.200 295.000 C 363.200 294.412,363.430 294.000,363.757 294.000 C 364.360 294.000,364.800 293.162,364.800 292.014 C 364.800 291.618,365.120 291.210,365.510 291.108 C 365.981 290.984,366.255 290.473,366.322 289.590 C 366.382 288.806,366.747 288.032,367.212 287.707 C 367.645 287.403,368.000 286.758,368.000 286.274 C 368.000 285.789,368.360 285.168,368.800 284.893 C 369.300 284.581,369.600 283.960,369.600 283.239 C 369.600 282.583,369.859 281.986,370.200 281.855 C 370.530 281.729,370.800 281.197,370.800 280.674 C 370.800 280.151,371.160 279.307,371.600 278.800 C 372.040 278.293,372.400 277.348,372.400 276.701 C 372.400 275.862,372.629 275.465,373.200 275.316 C 373.662 275.195,374.020 274.746,374.046 274.253 C 374.128 272.730,374.190 272.556,374.900 271.844 C 375.352 271.391,375.600 270.526,375.600 269.398 C 375.600 268.005,375.761 267.603,376.400 267.400 C 377.121 267.171,377.540 265.209,377.237 263.470 C 377.206 263.289,377.344 263.242,377.545 263.366 C 378.195 263.768,378.752 262.617,378.853 260.663 C 378.907 259.613,379.126 258.646,379.338 258.515 C 379.572 258.370,379.590 258.497,379.385 258.838 C 379.102 259.307,379.152 259.314,379.689 258.880 C 380.072 258.569,380.328 257.762,380.325 256.880 C 380.312 254.067,380.402 253.600,380.957 253.600 C 381.663 253.600,381.836 253.084,381.961 250.600 C 382.016 249.500,382.254 248.420,382.490 248.200 C 382.787 247.922,382.819 247.983,382.595 248.400 C 382.403 248.756,382.420 248.864,382.636 248.667 C 382.836 248.483,383.013 248.213,383.029 248.067 C 383.484 243.814,383.832 242.019,384.357 241.218 C 384.711 240.678,385.028 239.418,385.062 238.418 C 385.176 235.063,385.358 233.650,385.652 233.832 C 386.265 234.211,386.524 232.941,386.707 228.643 C 386.820 225.985,387.078 224.082,387.348 223.906 C 387.597 223.744,387.669 223.609,387.510 223.606 C 387.350 223.603,387.411 223.105,387.645 222.500 C 387.930 221.764,388.050 214.378,388.006 200.200 C 387.933 175.905,387.960 176.800,387.300 176.800 C 386.951 176.800,386.785 175.927,386.751 173.900 C 386.651 168.066,386.294 165.771,385.555 166.228 C 385.211 166.440,385.022 164.996,385.190 163.437 C 385.350 161.943,384.743 159.200,384.112 158.569 C 383.673 158.130,383.457 157.142,383.427 155.434 C 383.400 153.858,383.142 152.570,382.726 151.936 C 382.364 151.384,382.023 150.048,381.967 148.966 C 381.863 146.941,381.377 145.843,380.755 146.228 C 380.560 146.349,380.400 145.430,380.400 144.186 C 380.400 142.334,380.268 141.891,379.670 141.734 C 379.102 141.586,378.920 141.095,378.848 139.518 C 378.783 138.093,378.528 137.301,377.988 136.846 C 377.486 136.424,377.189 135.602,377.130 134.471 C 377.068 133.280,376.816 132.623,376.320 132.357 C 375.880 132.122,375.600 131.519,375.600 130.810 C 375.600 130.170,375.417 129.534,375.193 129.396 C 374.970 129.258,374.891 128.977,375.017 128.772 C 375.144 128.568,375.072 128.400,374.859 128.400 C 374.645 128.400,374.347 127.667,374.195 126.772 C 374.044 125.877,373.688 125.055,373.405 124.947 C 373.122 124.838,372.777 124.187,372.640 123.501 C 372.503 122.814,372.093 121.923,371.729 121.521 C 371.365 121.119,371.015 120.300,370.951 119.702 C 370.887 119.104,370.560 118.414,370.223 118.168 C 369.887 117.922,369.564 117.289,369.506 116.762 C 369.448 116.234,369.068 115.526,368.663 115.188 C 368.258 114.850,367.898 114.082,367.863 113.482 C 367.826 112.833,367.516 112.301,367.100 112.169 C 366.619 112.016,366.400 111.531,366.400 110.620 C 366.400 109.630,366.197 109.240,365.600 109.084 C 365.121 108.959,364.800 108.538,364.800 108.037 C 364.800 106.777,364.766 106.641,364.321 106.104 C 364.094 105.832,363.750 105.707,363.555 105.828 C 363.360 105.949,363.200 105.581,363.200 105.011 C 363.200 104.441,362.937 103.874,362.615 103.750 C 362.294 103.627,361.914 103.138,361.773 102.663 C 361.631 102.188,361.178 101.530,360.767 101.200 C 360.136 100.693,359.776 99.775,359.630 98.300 C 359.613 98.135,359.330 98.000,359.000 98.000 C 358.459 98.000,358.222 97.525,358.353 96.700 C 358.379 96.535,358.211 96.400,357.980 96.400 C 357.748 96.400,357.279 95.725,356.937 94.900 C 356.594 94.075,356.063 93.256,355.757 93.080 C 355.451 92.904,355.200 92.499,355.200 92.180 C 355.200 91.861,354.930 91.600,354.600 91.600 C 354.267 91.600,354.000 91.244,354.000 90.800 C 354.000 90.360,353.820 90.000,353.600 90.000 C 353.380 90.000,353.200 89.749,353.200 89.443 C 353.200 89.136,352.919 88.778,352.575 88.646 C 352.231 88.514,352.062 88.223,352.200 88.000 C 352.338 87.777,352.156 87.481,351.795 87.343 C 351.434 87.204,350.977 86.665,350.779 86.145 C 350.582 85.625,350.145 85.200,349.810 85.200 C 349.474 85.200,349.200 84.885,349.200 84.500 C 349.200 84.115,348.498 83.032,347.640 82.093 C 346.783 81.155,345.978 80.120,345.853 79.794 C 345.728 79.467,345.349 79.200,345.013 79.200 C 344.667 79.200,344.400 78.852,344.400 78.400 C 344.400 77.867,344.133 77.600,343.600 77.600 C 343.067 77.600,342.800 77.333,342.800 76.800 C 342.800 76.360,342.551 76.000,342.247 76.000 C 341.942 76.000,341.599 75.640,341.484 75.201 C 341.369 74.762,340.853 74.233,340.338 74.026 C 339.822 73.820,339.656 73.639,339.968 73.625 C 340.523 73.601,337.292 70.417,336.700 70.406 C 336.535 70.403,336.400 70.046,336.400 69.614 C 336.400 69.182,336.040 68.635,335.600 68.400 C 335.160 68.165,334.800 67.708,334.800 67.386 C 334.800 67.064,334.513 66.800,334.163 66.800 C 333.812 66.800,333.431 66.440,333.316 66.000 C 333.200 65.557,332.770 65.200,332.353 65.200 C 331.939 65.200,331.600 64.930,331.600 64.600 C 331.600 64.270,331.432 64.000,331.227 64.000 C 331.021 64.000,329.896 63.098,328.727 61.995 C 327.557 60.893,326.315 59.723,325.966 59.395 C 325.618 59.068,325.168 58.798,324.966 58.796 C 324.765 58.794,323.970 58.076,323.200 57.200 C 322.430 56.324,321.575 55.606,321.300 55.604 C 321.025 55.602,320.800 55.229,320.800 54.776 C 320.800 54.323,320.635 54.055,320.434 54.179 C 320.232 54.304,319.532 53.954,318.876 53.403 C 318.221 52.851,317.455 52.400,317.176 52.400 C 316.896 52.400,316.778 52.289,316.914 52.152 C 317.259 51.808,316.184 50.800,315.471 50.800 C 315.149 50.800,314.778 50.519,314.646 50.175 C 314.514 49.831,314.212 49.669,313.976 49.815 C 313.737 49.962,313.448 49.707,313.326 49.240 C 313.206 48.778,312.939 48.400,312.734 48.400 C 312.529 48.400,311.891 47.905,311.315 47.300 C 310.740 46.695,310.392 46.413,310.541 46.673 C 310.714 46.973,310.374 46.926,309.607 46.543 C 308.943 46.212,308.400 45.770,308.400 45.561 C 308.400 45.351,307.939 45.005,307.376 44.791 C 306.753 44.554,306.464 44.220,306.638 43.939 C 306.809 43.663,306.749 43.584,306.489 43.745 C 306.251 43.892,305.942 43.830,305.804 43.607 C 305.666 43.383,305.224 43.200,304.823 43.200 C 304.422 43.200,303.999 42.840,303.884 42.400 C 303.759 41.921,303.338 41.600,302.837 41.600 C 302.377 41.600,302.000 41.432,302.000 41.226 C 302.000 41.020,301.370 40.624,300.600 40.346 C 299.830 40.067,299.200 39.623,299.200 39.359 C 299.200 39.095,298.525 38.712,297.700 38.507 C 296.849 38.296,296.248 37.920,296.310 37.638 C 296.370 37.364,296.242 37.250,296.025 37.385 C 295.807 37.519,295.222 37.222,294.725 36.725 C 294.228 36.228,293.380 35.797,292.841 35.768 C 292.302 35.740,291.520 35.294,291.102 34.778 C 290.684 34.262,289.950 33.783,289.471 33.713 C 288.992 33.643,288.408 33.329,288.173 33.016 C 287.817 32.542,286.815 32.221,285.100 32.033 C 284.935 32.015,284.800 31.730,284.800 31.400 C 284.800 31.070,284.575 30.786,284.300 30.769 C 283.062 30.694,282.257 30.416,281.982 29.970 C 281.818 29.705,280.990 29.375,280.142 29.237 C 279.158 29.077,278.600 28.772,278.600 28.393 C 278.600 27.787,278.455 27.737,276.447 27.650 C 275.640 27.615,275.228 27.350,275.076 26.770 C 274.945 26.268,274.571 25.970,274.130 26.016 C 272.791 26.156,271.464 26.003,271.727 25.740 C 272.219 25.248,270.599 24.425,269.114 24.413 C 268.046 24.404,267.508 24.175,267.200 23.600 C 266.879 22.999,266.362 22.800,265.130 22.800 C 264.074 22.800,263.318 22.567,263.011 22.148 C 262.720 21.749,261.730 21.418,260.467 21.297 C 259.078 21.163,258.400 20.918,258.400 20.549 C 258.400 20.229,257.941 19.979,257.300 19.949 C 255.147 19.849,254.537 19.709,253.575 19.090 C 253.039 18.746,251.521 18.334,250.201 18.174 C 248.882 18.014,247.622 17.642,247.401 17.347 C 247.173 17.041,245.891 16.722,244.423 16.605 C 243.006 16.491,241.746 16.243,241.623 16.053 C 241.266 15.500,239.827 15.169,236.916 14.971 C 233.267 14.722,233.207 14.711,233.424 14.361 C 233.792 13.766,232.806 13.586,228.379 13.438 C 225.163 13.331,223.808 13.136,223.566 12.745 C 222.966 11.773,179.518 11.763,177.400 12.734 " stroke="none" fill="#7f0000" fill-rule="evenodd"></path></g></svg>