<svg id="svg" version="1.1" width="400" height="400" viewBox="0 0 400 400" xmlns="http://www.w3.org/2000/svg" xmlns:xlink="http://www.w3.org/1999/xlink" ><g id="svgg"><path id="path0" d="" stroke="none" fill="#003300" fill-rule="evenodd"></path><path id="path1" d="" stroke="none" fill="#146200" fill-rule="evenodd"></path><path id="path2" d="" stroke="none" fill="#006d00" fill-rule="evenodd"></path><path id="path3" d="M388.198 199.400 C 388.198 302.800,388.244 345.040,388.300 293.267 C 388.356 241.494,388.356 156.894,388.300 105.267 C 388.244 53.640,388.198 96.000,388.198 199.400 M105.533 388.300 C 157.306 388.356,241.906 388.356,293.533 388.300 C 345.160 388.244,302.800 388.198,199.400 388.198 C 96.000 388.198,53.760 388.244,105.533 388.300 " stroke="none" fill="#1a7200" fill-rule="evenodd"></path><path id="path4" d="M10.585 10.900 C 10.481 11.175,10.441 96.090,10.498 199.600 L 10.600 387.800 199.300 387.900 L 388.001 388.001 387.900 199.300 L 387.800 10.600 199.288 10.500 C 48.687 10.419,10.737 10.500,10.585 10.900 " stroke="none" fill="#267f00" fill-rule="evenodd"></path></g></svg>