<svg id="svg" version="1.1" width="400" height="400" viewBox="0 0 400 400" xmlns="http://www.w3.org/2000/svg" xmlns:xlink="http://www.w3.org/1999/xlink" ><g id="svgg"><path id="path0" d="" stroke="none" fill="#000000" fill-rule="evenodd"></path><path id="path1" d="M196.411 13.787 C 196.143 14.109,196.017 14.604,196.131 14.887 C 196.263 15.217,196.348 15.158,196.368 14.720 C 196.386 14.346,196.715 13.856,197.100 13.632 C 197.485 13.408,197.597 13.219,197.349 13.212 C 197.101 13.205,196.679 13.464,196.411 13.787 M134.229 137.829 C 133.406 138.651,133.435 138.768,134.400 138.516 C 134.840 138.401,135.200 138.058,135.200 137.753 C 135.200 137.040,135.001 137.056,134.229 137.829 M263.200 137.753 C 263.200 138.058,263.557 138.400,263.993 138.514 C 264.668 138.690,264.725 138.608,264.379 137.961 C 263.905 137.075,263.200 136.951,263.200 137.753 M132.621 141.177 C 132.234 141.604,132.012 142.189,132.127 142.477 C 132.264 142.817,132.348 142.755,132.368 142.300 C 132.386 141.915,132.670 141.600,133.000 141.600 C 133.330 141.600,133.600 141.330,133.600 141.000 C 133.600 140.218,133.467 140.243,132.621 141.177 M264.800 140.953 C 264.800 141.258,265.157 141.600,265.593 141.714 C 266.268 141.890,266.325 141.808,265.979 141.161 C 265.505 140.275,264.800 140.151,264.800 140.953 M130.800 144.599 C 130.506 145.149,130.386 145.719,130.533 145.866 C 130.680 146.013,130.800 145.833,130.800 145.467 C 130.800 145.100,131.070 144.800,131.400 144.800 C 131.730 144.800,132.000 144.530,132.000 144.200 C 132.000 143.284,131.397 143.484,130.800 144.599 M266.400 144.153 C 266.400 144.458,266.757 144.800,267.193 144.914 C 267.868 145.090,267.925 145.008,267.579 144.361 C 267.105 143.475,266.400 143.351,266.400 144.153 M129.628 146.966 C 128.996 147.728,129.185 148.104,129.960 147.625 C 130.256 147.442,130.424 147.072,130.334 146.802 C 130.218 146.454,130.014 146.501,129.628 146.966 M268.000 146.880 C 268.000 147.170,268.371 147.639,268.824 147.922 C 269.581 148.395,269.613 148.372,269.222 147.641 C 268.675 146.620,268.000 146.199,268.000 146.880 M128.229 150.229 C 127.406 151.051,127.435 151.168,128.400 150.916 C 128.840 150.801,129.200 150.458,129.200 150.153 C 129.200 149.440,129.001 149.456,128.229 150.229 M269.600 150.200 C 269.600 150.530,269.892 150.800,270.249 150.800 C 270.780 150.800,270.808 150.691,270.400 150.200 C 270.126 149.870,269.834 149.600,269.751 149.600 C 269.668 149.600,269.600 149.870,269.600 150.200 M126.667 153.067 C 126.206 153.527,126.375 154.000,127.000 154.000 C 127.330 154.000,127.600 153.730,127.600 153.400 C 127.600 152.775,127.127 152.606,126.667 153.067 M271.200 153.400 C 271.200 153.730,271.492 154.000,271.849 154.000 C 272.380 154.000,272.408 153.891,272.000 153.400 C 271.726 153.070,271.434 152.800,271.351 152.800 C 271.268 152.800,271.200 153.070,271.200 153.400 M124.821 156.761 C 124.475 157.408,124.532 157.490,125.207 157.314 C 125.643 157.200,126.000 156.858,126.000 156.553 C 126.000 155.751,125.295 155.875,124.821 156.761 M272.800 156.600 C 272.800 156.930,273.092 157.200,273.449 157.200 C 273.980 157.200,274.008 157.091,273.600 156.600 C 273.326 156.270,273.034 156.000,272.951 156.000 C 272.868 156.000,272.800 156.270,272.800 156.600 M123.221 159.961 C 122.875 160.608,122.932 160.690,123.607 160.514 C 124.043 160.400,124.400 160.058,124.400 159.753 C 124.400 158.951,123.695 159.075,123.221 159.961 M274.400 159.800 C 274.400 160.130,274.664 160.400,274.987 160.400 C 275.345 160.400,275.485 160.165,275.345 159.800 C 275.218 159.470,274.954 159.200,274.757 159.200 C 274.561 159.200,274.400 159.470,274.400 159.800 M275.600 162.566 C 275.600 162.863,275.947 163.197,276.370 163.308 C 276.892 163.445,277.075 163.341,276.939 162.986 C 276.654 162.243,275.600 161.913,275.600 162.566 M121.600 163.000 C 121.059 163.651,121.189 163.733,122.167 163.357 C 122.515 163.224,122.800 162.954,122.800 162.757 C 122.800 162.204,122.152 162.335,121.600 163.000 M120.511 165.700 C 119.530 166.969,119.484 167.279,120.358 166.733 C 120.821 166.444,121.200 165.981,121.200 165.704 C 121.200 165.067,121.002 165.066,120.511 165.700 M277.200 165.766 C 277.200 166.063,277.547 166.397,277.970 166.508 C 278.492 166.645,278.675 166.541,278.539 166.186 C 278.254 165.443,277.200 165.113,277.200 165.766 M118.598 169.202 C 118.198 169.644,117.990 170.124,118.136 170.269 C 118.281 170.414,118.400 170.323,118.400 170.067 C 118.400 169.810,118.670 169.600,119.000 169.600 C 119.330 169.600,119.600 169.330,119.600 169.000 C 119.600 168.215,119.467 168.242,118.598 169.202 M278.800 168.953 C 278.800 169.258,279.157 169.600,279.593 169.714 C 280.268 169.890,280.325 169.808,279.979 169.161 C 279.505 168.275,278.800 168.151,278.800 168.953 M117.067 171.867 C 116.606 172.327,116.775 172.800,117.400 172.800 C 117.730 172.800,118.000 172.530,118.000 172.200 C 118.000 171.575,117.527 171.406,117.067 171.867 M280.400 172.153 C 280.400 172.458,280.757 172.800,281.193 172.914 C 281.868 173.090,281.925 173.008,281.579 172.361 C 281.105 171.475,280.400 171.351,280.400 172.153 M115.200 175.799 C 114.906 176.349,114.786 176.919,114.933 177.066 C 115.080 177.213,115.200 177.033,115.200 176.667 C 115.200 176.300,115.470 176.000,115.800 176.000 C 116.130 176.000,116.400 175.730,116.400 175.400 C 116.400 174.484,115.797 174.684,115.200 175.799 M282.000 175.353 C 282.000 175.658,282.357 176.000,282.793 176.114 C 283.468 176.290,283.525 176.208,283.179 175.561 C 282.705 174.675,282.000 174.551,282.000 175.353 M113.600 178.999 C 113.306 179.549,113.186 180.119,113.333 180.266 C 113.480 180.413,113.600 180.233,113.600 179.867 C 113.600 179.500,113.870 179.200,114.200 179.200 C 114.530 179.200,114.800 178.930,114.800 178.600 C 114.800 177.684,114.197 177.884,113.600 178.999 M283.600 178.553 C 283.600 178.858,283.957 179.200,284.393 179.314 C 285.068 179.490,285.125 179.408,284.779 178.761 C 284.305 177.875,283.600 177.751,283.600 178.553 M112.405 181.591 C 112.059 182.236,112.094 182.339,112.591 182.148 C 112.926 182.020,113.200 181.664,113.200 181.357 C 113.200 180.576,112.901 180.664,112.405 181.591 M285.200 181.280 C 285.200 181.570,285.571 182.039,286.024 182.322 C 286.781 182.795,286.813 182.772,286.422 182.041 C 285.875 181.020,285.200 180.599,285.200 181.280 M110.821 184.761 C 110.475 185.408,110.532 185.490,111.207 185.314 C 111.643 185.200,112.000 184.858,112.000 184.553 C 112.000 183.751,111.295 183.875,110.821 184.761 M286.813 184.500 C 286.806 184.885,286.986 185.200,287.213 185.200 C 287.440 185.200,287.789 185.605,287.988 186.100 C 288.236 186.717,288.357 186.794,288.375 186.344 C 288.389 185.984,288.046 185.264,287.613 184.744 C 286.953 183.952,286.824 183.913,286.813 184.500 M107.592 190.610 C 106.819 191.541,107.371 191.717,108.198 190.802 C 108.597 190.361,108.738 190.000,108.511 190.000 C 108.284 190.000,107.870 190.274,107.592 190.610 M290.726 191.199 C 291.088 191.831,291.426 192.307,291.477 192.257 C 291.739 191.995,291.048 190.427,290.594 190.253 C 290.211 190.106,290.248 190.367,290.726 191.199 M291.796 193.642 C 292.233 194.169,292.638 194.675,292.696 194.767 C 292.753 194.858,292.800 194.640,292.800 194.281 C 292.800 193.922,292.395 193.416,291.900 193.156 L 291.000 192.684 291.796 193.642 M105.992 193.810 C 105.714 194.145,105.566 194.500,105.664 194.598 C 105.762 194.696,106.146 194.421,106.517 193.988 C 106.889 193.555,107.036 193.200,106.845 193.200 C 106.654 193.200,106.270 193.474,105.992 193.810 M104.233 197.057 C 103.883 197.969,104.080 197.992,104.900 197.133 C 105.433 196.575,105.467 196.400,105.043 196.400 C 104.736 196.400,104.372 196.696,104.233 197.057 M293.423 196.967 C 294.261 197.580,294.640 197.513,294.216 196.827 C 294.071 196.592,293.659 196.400,293.300 196.400 C 292.754 196.400,292.774 196.493,293.423 196.967 M295.023 200.167 C 295.861 200.780,296.240 200.713,295.816 200.027 C 295.671 199.792,295.259 199.600,294.900 199.600 C 294.354 199.600,294.374 199.693,295.023 200.167 M101.200 203.167 C 101.200 203.369,101.096 203.864,100.970 204.267 C 100.777 204.881,100.820 204.870,101.236 204.200 C 101.508 203.760,101.927 203.268,102.166 203.106 C 102.430 202.927,102.326 202.810,101.900 202.806 C 101.515 202.803,101.200 202.965,101.200 203.167 M100.171 205.906 C 99.753 206.192,99.084 207.600,99.367 207.600 C 99.444 207.600,99.803 207.150,100.163 206.600 C 100.858 205.540,100.859 205.435,100.171 205.906 M298.202 206.402 C 298.602 206.844,299.015 207.118,299.121 207.012 C 299.390 206.743,298.392 205.600,297.889 205.600 C 297.662 205.600,297.803 205.961,298.202 206.402 M98.751 208.752 C 98.394 209.108,97.968 209.850,97.804 210.400 C 97.580 211.155,97.769 211.021,98.573 209.853 C 99.720 208.189,99.798 207.706,98.751 208.752 M299.771 209.429 C 300.117 209.774,300.400 210.254,300.400 210.495 C 300.400 210.736,300.505 210.829,300.632 210.701 C 300.956 210.377,300.064 208.800,299.557 208.800 C 299.329 208.800,299.426 209.083,299.771 209.429 M96.977 212.167 C 96.550 212.479,96.307 212.840,96.436 212.970 C 96.566 213.099,96.998 212.844,97.398 212.402 C 98.248 211.463,98.073 211.366,96.977 212.167 M93.777 218.567 C 93.350 218.879,93.107 219.240,93.236 219.370 C 93.366 219.499,93.798 219.244,94.198 218.802 C 95.048 217.863,94.873 217.766,93.777 218.567 M91.992 221.810 C 91.244 222.711,91.678 222.815,92.570 221.948 C 92.993 221.537,93.151 221.200,92.919 221.200 C 92.687 221.200,92.270 221.474,91.992 221.810 M306.245 222.212 C 307.024 223.401,307.192 223.455,306.923 222.428 C 306.812 222.003,306.468 221.558,306.159 221.440 C 305.719 221.271,305.738 221.439,306.245 222.212 M90.392 225.010 C 90.114 225.345,89.966 225.700,90.064 225.798 C 90.162 225.896,90.546 225.621,90.917 225.188 C 91.289 224.755,91.436 224.400,91.245 224.400 C 91.054 224.400,90.670 224.674,90.392 225.010 M88.792 228.210 C 88.514 228.545,88.366 228.900,88.464 228.998 C 88.562 229.096,88.946 228.821,89.317 228.388 C 89.689 227.955,89.836 227.600,89.645 227.600 C 89.454 227.600,89.070 227.874,88.792 228.210 M309.100 228.333 C 309.898 229.169,310.209 229.121,309.862 228.217 C 309.732 227.878,309.349 227.600,309.013 227.600 C 308.494 227.600,308.508 227.713,309.100 228.333 M310.623 231.367 C 311.461 231.980,311.840 231.913,311.416 231.227 C 311.271 230.992,310.859 230.800,310.500 230.800 C 309.954 230.800,309.974 230.893,310.623 231.367 M312.287 234.568 C 313.069 235.614,313.352 235.663,312.978 234.688 C 312.846 234.344,312.476 233.961,312.156 233.839 C 311.718 233.670,311.750 233.851,312.287 234.568 M85.484 234.800 C 85.369 235.240,85.308 235.600,85.349 235.600 C 85.389 235.600,85.730 235.240,86.107 234.800 C 86.632 234.187,86.663 234.000,86.243 234.000 C 85.941 234.000,85.599 234.360,85.484 234.800 M84.300 237.232 C 83.915 237.456,83.614 237.946,83.632 238.320 C 83.657 238.874,83.706 238.889,83.896 238.400 C 84.025 238.070,84.416 237.581,84.765 237.313 C 85.537 236.720,85.261 236.672,84.300 237.232 M317.100 243.933 C 317.920 244.792,318.117 244.769,317.767 243.857 C 317.628 243.496,317.264 243.200,316.957 243.200 C 316.533 243.200,316.567 243.375,317.100 243.933 M320.854 251.438 C 320.825 251.899,321.160 252.602,321.600 253.000 C 322.040 253.398,322.400 253.535,322.400 253.305 C 322.400 253.074,322.144 252.787,321.831 252.667 C 321.518 252.547,321.183 252.033,321.085 251.524 C 320.925 250.687,320.904 250.678,320.854 251.438 M76.451 252.760 C 76.149 252.951,75.969 253.271,76.051 253.470 C 76.133 253.670,76.515 253.511,76.900 253.117 C 77.634 252.365,77.386 252.167,76.451 252.760 M72.938 259.417 C 72.591 260.321,72.902 260.369,73.700 259.533 C 74.292 258.913,74.306 258.800,73.787 258.800 C 73.451 258.800,73.068 259.078,72.938 259.417 M71.338 262.617 C 70.991 263.521,71.302 263.569,72.100 262.733 C 72.692 262.113,72.706 262.000,72.187 262.000 C 71.851 262.000,71.468 262.278,71.338 262.617 M68.629 268.629 C 68.283 268.974,68.000 269.454,68.000 269.695 C 68.000 269.936,68.047 270.058,68.104 269.967 C 68.162 269.875,68.550 269.395,68.966 268.900 C 69.828 267.876,69.580 267.677,68.629 268.629 M334.300 278.333 C 335.120 279.192,335.317 279.169,334.967 278.257 C 334.828 277.896,334.464 277.600,334.157 277.600 C 333.733 277.600,333.767 277.775,334.300 278.333 M60.851 283.960 C 60.549 284.151,60.369 284.471,60.451 284.670 C 60.533 284.870,60.915 284.711,61.300 284.317 C 62.034 283.565,61.786 283.367,60.851 283.960 M338.046 285.886 C 338.017 286.438,338.339 286.936,338.900 287.208 C 339.676 287.584,339.710 287.571,339.147 287.112 C 338.787 286.819,338.403 286.225,338.293 285.790 C 338.112 285.074,338.088 285.083,338.046 285.886 M346.700 303.117 C 347.085 303.511,347.467 303.670,347.549 303.470 C 347.631 303.271,347.451 302.951,347.149 302.760 C 346.214 302.167,345.966 302.365,346.700 303.117 M362.300 334.317 C 362.685 334.711,363.067 334.870,363.149 334.670 C 363.231 334.471,363.051 334.151,362.749 333.960 C 361.814 333.367,361.566 333.565,362.300 334.317 M18.138 368.617 C 18.008 368.957,18.013 369.347,18.151 369.484 C 18.288 369.621,18.400 369.447,18.400 369.096 C 18.400 368.745,18.715 368.376,19.100 368.276 C 19.756 368.104,19.755 368.090,19.087 368.046 C 18.696 368.021,18.268 368.278,18.138 368.617 " stroke="none" fill="#000055" fill-rule="evenodd"></path><path id="path2" d="M222.432 56.486 C 222.414 56.863,222.805 57.368,223.300 57.608 C 224.063 57.978,224.104 57.965,223.565 57.522 C 223.216 57.235,222.825 56.730,222.696 56.400 C 222.507 55.914,222.457 55.930,222.432 56.486 " stroke="none" fill="#0d0d79" fill-rule="evenodd"></path><path id="path3" d="M202.800 17.400 C 203.074 17.730,203.478 18.000,203.698 18.000 C 203.921 18.000,203.878 17.735,203.600 17.400 C 203.326 17.070,202.922 16.800,202.702 16.800 C 202.479 16.800,202.522 17.065,202.800 17.400 M203.634 18.800 C 203.625 19.130,203.944 19.824,204.342 20.342 C 204.883 21.044,205.067 21.121,205.067 20.642 C 205.067 20.289,204.911 20.000,204.720 20.000 C 204.530 20.000,204.211 19.595,204.012 19.100 C 203.812 18.602,203.643 18.468,203.634 18.800 M205.863 23.669 C 206.605 24.489,206.937 24.423,206.592 23.524 C 206.468 23.199,206.103 22.933,205.781 22.933 C 205.298 22.933,205.312 23.061,205.863 23.669 M191.707 24.045 C 191.672 24.510,191.684 24.825,191.735 24.745 C 191.785 24.665,192.067 24.285,192.362 23.900 C 192.813 23.311,192.809 23.200,192.334 23.200 C 192.024 23.200,191.742 23.580,191.707 24.045 M189.000 29.506 C 188.780 29.668,188.542 30.065,188.470 30.389 C 188.374 30.828,188.552 30.787,189.170 30.227 C 190.247 29.252,190.114 28.688,189.000 29.506 M187.055 33.000 C 186.929 33.330,186.977 33.600,187.164 33.600 C 187.350 33.600,187.726 33.330,188.000 33.000 C 188.405 32.512,188.385 32.400,187.892 32.400 C 187.558 32.400,187.182 32.670,187.055 33.000 M186.832 34.374 C 186.814 34.690,186.409 35.365,185.930 35.874 C 185.452 36.383,185.268 36.800,185.521 36.800 C 186.161 36.800,187.320 34.937,187.069 34.313 C 186.917 33.933,186.855 33.949,186.832 34.374 M211.834 35.906 C 212.073 36.068,212.482 36.560,212.744 37.000 L 213.220 37.800 213.110 37.000 C 212.995 36.162,212.476 35.612,211.800 35.612 C 211.564 35.612,211.578 35.733,211.834 35.906 M184.625 38.612 C 184.198 38.934,183.805 39.604,183.750 40.099 C 183.695 40.595,183.743 40.780,183.855 40.510 C 183.968 40.240,184.039 39.916,184.012 39.788 C 183.986 39.661,184.378 39.212,184.882 38.792 C 185.957 37.896,185.757 37.756,184.625 38.612 M213.861 39.330 C 214.263 39.809,214.642 40.279,214.705 40.376 C 214.767 40.472,214.753 40.127,214.674 39.609 C 214.595 39.088,214.217 38.620,213.831 38.563 C 213.177 38.467,213.179 38.517,213.861 39.330 M178.100 51.088 C 177.825 51.186,177.614 51.657,177.632 52.133 C 177.653 52.728,177.735 52.811,177.892 52.400 C 178.017 52.070,178.313 51.675,178.548 51.522 C 179.092 51.169,178.763 50.851,178.100 51.088 M171.588 64.422 C 171.346 64.874,171.236 65.459,171.342 65.722 C 171.452 65.992,171.551 65.908,171.568 65.529 C 171.586 65.159,171.883 64.574,172.229 64.229 C 172.574 63.883,172.671 63.600,172.443 63.600 C 172.215 63.600,171.830 63.970,171.588 64.422 M227.840 67.106 C 228.082 67.268,228.383 67.670,228.508 68.000 C 228.661 68.401,228.747 68.301,228.768 67.700 C 228.790 67.095,228.570 66.802,228.100 66.806 C 227.668 66.810,227.569 66.925,227.840 67.106 M231.061 73.730 C 231.463 74.209,231.842 74.679,231.905 74.776 C 231.967 74.872,231.953 74.527,231.874 74.009 C 231.795 73.488,231.417 73.020,231.031 72.963 C 230.377 72.867,230.379 72.917,231.061 73.730 M160.900 85.488 C 160.625 85.586,160.400 85.935,160.400 86.262 C 160.400 86.767,160.498 86.759,161.048 86.210 C 161.752 85.506,161.690 85.206,160.900 85.488 M238.032 87.880 C 238.014 88.144,238.244 88.504,238.541 88.680 C 238.839 88.856,239.185 89.270,239.310 89.600 C 239.461 90.000,239.547 89.900,239.568 89.300 C 239.587 88.775,239.364 88.400,239.033 88.400 C 238.722 88.400,238.376 88.175,238.265 87.900 C 238.117 87.533,238.055 87.528,238.032 87.880 M239.600 91.142 C 239.600 91.326,239.960 91.802,240.400 92.200 C 240.840 92.598,241.200 92.756,241.200 92.551 C 241.200 92.346,240.840 91.870,240.400 91.493 C 239.960 91.116,239.600 90.958,239.600 91.142 M154.588 97.922 C 154.375 98.075,154.143 98.470,154.073 98.800 C 153.972 99.281,154.086 99.263,154.650 98.710 C 155.358 98.014,155.310 97.405,154.588 97.922 M152.630 101.467 C 152.517 101.760,152.577 102.000,152.764 102.000 C 152.950 102.000,153.301 101.760,153.545 101.467 C 153.879 101.064,153.846 100.933,153.411 100.933 C 153.094 100.933,152.742 101.173,152.630 101.467 M244.900 101.232 C 245.285 101.456,245.600 101.931,245.600 102.287 C 245.600 102.642,245.706 102.827,245.837 102.697 C 246.285 102.248,245.545 100.800,244.873 100.812 C 244.259 100.823,244.261 100.860,244.900 101.232 M145.471 116.651 C 145.070 117.188,144.831 117.846,144.940 118.113 C 145.054 118.396,145.150 118.314,145.168 117.920 C 145.186 117.546,145.493 117.076,145.852 116.875 C 146.210 116.674,146.435 116.322,146.352 116.092 C 146.268 115.862,145.872 116.113,145.471 116.651 M253.654 118.537 C 253.625 118.942,253.960 119.731,254.400 120.291 C 254.840 120.850,255.200 121.126,255.200 120.903 C 255.200 120.680,254.941 120.283,254.624 120.020 C 254.307 119.757,253.972 119.150,253.878 118.671 C 253.746 117.992,253.697 117.963,253.654 118.537 M143.433 120.257 C 143.083 121.169,143.280 121.192,144.100 120.333 C 144.633 119.775,144.667 119.600,144.243 119.600 C 143.936 119.600,143.572 119.896,143.433 120.257 M255.232 122.280 C 255.214 122.544,255.444 122.904,255.741 123.080 C 256.039 123.256,256.385 123.670,256.510 124.000 C 256.661 124.400,256.747 124.300,256.768 123.700 C 256.787 123.175,256.564 122.800,256.233 122.800 C 255.922 122.800,255.576 122.575,255.465 122.300 C 255.317 121.933,255.255 121.928,255.232 122.280 M136.758 134.400 C 136.661 134.950,136.377 135.361,136.128 135.313 C 135.880 135.265,135.574 135.490,135.450 135.813 C 135.132 136.642,135.748 136.542,136.573 135.630 C 136.956 135.206,137.195 134.531,137.103 134.130 C 136.972 133.560,136.896 133.619,136.758 134.400 M270.807 153.442 C 270.814 153.824,272.800 155.837,272.800 155.463 C 272.800 155.341,272.350 154.756,271.800 154.162 C 271.250 153.569,270.803 153.244,270.807 153.442 M272.453 156.400 C 272.432 156.730,272.890 157.450,273.472 158.000 C 274.477 158.951,274.506 158.956,274.051 158.100 C 273.787 157.605,273.411 157.200,273.215 157.200 C 273.019 157.200,272.776 156.885,272.676 156.500 C 272.546 156.005,272.481 155.975,272.453 156.400 M110.000 187.624 C 110.000 187.857,109.820 187.936,109.600 187.800 C 109.380 187.664,109.200 187.743,109.200 187.976 C 109.200 188.209,109.470 188.400,109.800 188.400 C 110.130 188.400,110.400 188.130,110.400 187.800 C 110.400 187.470,110.310 187.200,110.200 187.200 C 110.090 187.200,110.000 187.391,110.000 187.624 M289.534 189.800 C 289.747 190.240,289.939 190.735,289.961 190.900 C 290.014 191.306,290.288 191.445,290.539 191.194 C 290.653 191.081,290.386 190.541,289.946 189.994 C 289.388 189.300,289.263 189.241,289.534 189.800 M291.497 193.637 C 291.770 193.987,291.900 194.366,291.787 194.480 C 291.673 194.593,291.900 194.937,292.290 195.243 C 292.920 195.738,292.944 195.729,292.503 195.163 C 292.230 194.813,292.100 194.434,292.213 194.320 C 292.327 194.207,292.100 193.863,291.710 193.557 C 291.080 193.062,291.056 193.071,291.497 193.637 M106.579 193.966 C 106.703 194.167,106.579 194.423,106.302 194.534 C 105.999 194.656,106.078 194.749,106.500 194.768 C 106.885 194.786,107.200 194.530,107.200 194.200 C 107.200 193.870,107.009 193.600,106.776 193.600 C 106.543 193.600,106.455 193.765,106.579 193.966 M104.750 196.976 C 104.722 197.099,104.675 197.335,104.644 197.500 C 104.613 197.665,104.437 198.038,104.252 198.330 C 103.974 198.768,104.061 198.769,104.758 198.333 C 105.221 198.044,105.600 197.681,105.600 197.527 C 105.600 197.178,104.818 196.671,104.750 196.976 M292.971 197.281 C 292.807 197.566,292.818 197.668,292.996 197.506 C 293.175 197.345,293.558 197.525,293.848 197.906 C 294.137 198.288,294.380 198.397,294.387 198.149 C 294.410 197.355,293.316 196.684,292.971 197.281 M294.627 200.356 C 294.493 200.573,294.631 200.897,294.933 201.075 C 295.235 201.254,295.585 201.670,295.710 202.000 C 295.867 202.416,295.947 202.339,295.968 201.749 C 296.005 200.774,295.009 199.739,294.627 200.356 M296.133 203.398 C 296.133 203.729,296.228 203.906,296.343 203.791 C 296.458 203.675,296.773 204.080,297.044 204.691 C 297.466 205.644,297.540 205.682,297.568 204.962 C 297.585 204.501,297.270 203.825,296.867 203.460 C 296.241 202.894,296.133 202.885,296.133 203.398 M100.613 205.820 C 100.099 207.020,100.032 207.627,100.442 207.374 C 100.646 207.248,100.719 206.993,100.604 206.807 C 100.489 206.621,100.603 206.399,100.858 206.314 C 101.112 206.229,101.236 205.908,101.133 205.600 C 100.995 205.186,100.860 205.244,100.613 205.820 M297.733 206.598 C 297.733 206.929,297.828 207.106,297.943 206.991 C 298.058 206.875,298.373 207.280,298.644 207.891 C 299.066 208.844,299.140 208.882,299.168 208.162 C 299.185 207.701,298.870 207.025,298.467 206.660 C 297.841 206.094,297.733 206.085,297.733 206.598 M299.200 209.757 C 299.200 210.064,299.470 210.418,299.800 210.545 C 300.130 210.671,300.400 210.601,300.400 210.387 C 300.400 210.174,300.209 210.000,299.976 210.000 C 299.743 210.000,299.664 209.820,299.800 209.600 C 299.936 209.380,299.857 209.200,299.624 209.200 C 299.391 209.200,299.200 209.451,299.200 209.757 M300.446 211.624 C 300.421 211.966,300.640 212.575,300.933 212.976 C 301.395 213.608,301.467 213.619,301.467 213.053 C 301.467 212.694,301.330 212.400,301.163 212.400 C 300.995 212.400,300.776 212.085,300.676 211.700 C 300.534 211.156,300.482 211.139,300.446 211.624 M96.998 212.802 C 96.598 213.244,96.366 213.699,96.482 213.815 C 96.597 213.930,96.990 213.569,97.355 213.012 C 98.152 211.796,97.993 211.702,96.998 212.802 M95.427 215.970 C 95.044 216.394,94.791 216.998,94.865 217.314 C 94.944 217.649,95.270 217.329,95.649 216.544 C 96.401 214.988,96.376 214.922,95.427 215.970 M302.400 215.920 C 302.400 216.385,303.290 217.202,303.780 217.188 C 304.011 217.181,303.881 216.990,303.492 216.763 C 303.102 216.536,302.888 216.182,303.015 215.975 C 303.143 215.769,303.057 215.600,302.824 215.600 C 302.591 215.600,302.400 215.744,302.400 215.920 M93.862 219.131 C 92.961 220.127,92.982 221.075,93.885 220.172 C 94.261 219.796,94.606 219.243,94.649 218.944 C 94.754 218.233,94.654 218.256,93.862 219.131 M305.345 221.600 C 305.419 222.150,305.597 222.555,305.740 222.500 C 306.175 222.333,306.169 222.230,305.681 221.400 C 305.239 220.648,305.218 220.660,305.345 221.600 M92.800 222.024 C 92.800 222.257,92.620 222.336,92.400 222.200 C 92.180 222.064,92.000 222.143,92.000 222.376 C 92.000 222.609,92.270 222.800,92.600 222.800 C 92.930 222.800,93.200 222.530,93.200 222.200 C 93.200 221.870,93.110 221.600,93.000 221.600 C 92.890 221.600,92.800 221.791,92.800 222.024 M306.871 224.500 C 307.145 224.995,307.327 225.548,307.275 225.730 C 307.223 225.911,307.363 225.947,307.586 225.809 C 307.842 225.650,307.755 225.198,307.350 224.579 C 306.545 223.351,306.202 223.294,306.871 224.500 M90.979 225.166 C 91.103 225.367,90.979 225.623,90.702 225.734 C 90.399 225.856,90.478 225.949,90.900 225.968 C 91.285 225.986,91.600 225.730,91.600 225.400 C 91.600 225.070,91.409 224.800,91.176 224.800 C 90.943 224.800,90.855 224.965,90.979 225.166 M89.400 228.400 C 89.536 228.620,89.476 228.800,89.266 228.800 C 89.057 228.800,88.783 229.067,88.658 229.394 C 88.467 229.891,88.558 229.908,89.215 229.498 C 90.050 228.977,90.285 228.000,89.576 228.000 C 89.343 228.000,89.264 228.180,89.400 228.400 M310.171 231.681 C 310.007 231.966,310.018 232.068,310.196 231.906 C 310.375 231.745,310.758 231.925,311.048 232.306 C 311.337 232.688,311.580 232.797,311.587 232.549 C 311.610 231.755,310.516 231.084,310.171 231.681 M311.767 234.656 C 311.824 235.041,312.079 235.426,312.335 235.512 C 312.986 235.729,312.916 234.994,312.232 234.427 C 311.776 234.048,311.684 234.093,311.767 234.656 M84.800 237.624 C 84.800 237.857,84.650 237.955,84.467 237.841 C 84.283 237.728,84.133 237.880,84.133 238.179 C 84.133 238.479,84.359 238.637,84.636 238.531 C 85.262 238.291,85.714 237.200,85.187 237.200 C 84.974 237.200,84.800 237.391,84.800 237.624 M313.400 237.600 C 313.246 237.849,313.183 238.092,313.260 238.140 C 313.337 238.187,313.760 238.490,314.200 238.813 C 314.956 239.368,314.967 239.358,314.400 238.639 C 314.070 238.220,313.860 237.800,313.933 237.705 C 314.007 237.611,313.980 237.446,313.873 237.340 C 313.767 237.234,313.554 237.351,313.400 237.600 M315.013 240.779 C 314.880 240.994,315.137 241.537,315.585 241.985 C 316.033 242.433,316.400 242.631,316.400 242.424 C 316.400 242.217,316.217 241.934,315.993 241.796 C 315.770 241.658,315.683 241.390,315.800 241.200 C 315.917 241.010,315.843 240.750,315.634 240.621 C 315.426 240.492,315.146 240.563,315.013 240.779 M82.800 241.200 C 82.483 241.396,82.356 241.689,82.518 241.852 C 82.681 242.014,83.023 241.937,83.280 241.680 C 83.884 241.076,83.547 240.738,82.800 241.200 M82.000 243.557 C 82.000 243.827,81.792 243.919,81.538 243.762 C 81.252 243.585,81.185 243.652,81.362 243.938 C 81.519 244.192,81.457 244.400,81.224 244.400 C 80.991 244.400,80.800 244.580,80.800 244.800 C 80.800 245.020,80.974 245.200,81.186 245.200 C 81.671 245.200,82.546 243.612,82.232 243.299 C 82.105 243.171,82.000 243.287,82.000 243.557 M316.576 244.038 C 316.293 244.496,317.069 245.209,317.800 245.162 C 318.020 245.148,317.974 245.046,317.698 244.934 C 317.421 244.823,317.289 244.579,317.404 244.393 C 317.519 244.207,317.443 243.950,317.234 243.821 C 317.026 243.692,316.730 243.790,316.576 244.038 M79.735 246.900 C 79.564 247.175,79.375 247.760,79.317 248.200 C 79.221 248.921,79.251 248.932,79.620 248.308 C 79.846 247.928,80.008 247.498,79.981 247.353 C 79.954 247.208,80.172 246.937,80.466 246.751 C 80.830 246.520,80.848 246.410,80.524 246.406 C 80.262 246.403,79.907 246.625,79.735 246.900 M318.400 247.800 C 318.674 248.130,319.101 248.386,319.349 248.368 C 319.630 248.349,319.611 248.260,319.298 248.134 C 319.021 248.023,318.897 247.767,319.021 247.566 C 319.145 247.365,318.945 247.200,318.575 247.200 C 318.022 247.200,317.991 247.307,318.400 247.800 M78.832 249.924 C 78.814 250.214,78.595 250.320,78.338 250.162 C 78.063 249.991,77.985 250.051,78.145 250.311 C 78.292 250.549,78.230 250.858,78.007 250.996 C 77.783 251.134,77.600 251.424,77.600 251.639 C 77.600 251.855,77.979 251.678,78.443 251.246 C 78.907 250.813,79.191 250.221,79.075 249.930 C 78.903 249.500,78.857 249.499,78.832 249.924 M319.693 250.400 C 320.162 251.151,320.800 251.480,320.800 250.971 C 320.800 250.673,319.725 249.600,319.425 249.600 C 319.298 249.600,319.418 249.960,319.693 250.400 M76.750 252.976 C 76.723 253.099,76.675 253.335,76.644 253.500 C 76.613 253.665,76.437 254.038,76.252 254.330 C 75.974 254.768,76.061 254.769,76.758 254.333 C 77.221 254.044,77.600 253.681,77.600 253.527 C 77.600 253.178,76.818 252.671,76.750 252.976 M322.414 255.900 C 322.422 256.065,322.878 256.740,323.427 257.400 C 324.048 258.146,324.319 258.309,324.144 257.831 C 323.844 257.015,322.390 255.391,322.414 255.900 M75.150 256.176 C 75.123 256.299,75.075 256.535,75.044 256.700 C 75.013 256.865,74.837 257.238,74.652 257.530 C 74.374 257.968,74.461 257.969,75.158 257.533 C 75.621 257.244,76.000 256.881,76.000 256.727 C 76.000 256.378,75.218 255.871,75.150 256.176 M324.032 259.024 C 323.978 259.742,325.112 261.023,325.467 260.645 C 325.650 260.450,325.574 260.210,325.298 260.111 C 325.021 260.012,324.914 259.739,325.059 259.504 C 325.208 259.263,325.137 259.192,324.896 259.341 C 324.661 259.486,324.377 259.379,324.266 259.102 C 324.154 258.826,324.049 258.791,324.032 259.024 M73.383 259.972 C 73.509 260.177,73.430 260.458,73.207 260.596 C 72.983 260.734,72.800 261.017,72.800 261.224 C 72.800 261.431,73.160 261.240,73.600 260.800 C 74.563 259.837,74.598 259.600,73.776 259.600 C 73.433 259.600,73.256 259.768,73.383 259.972 M325.632 262.411 C 325.614 262.747,325.960 263.330,326.400 263.707 C 327.069 264.280,327.200 264.295,327.200 263.796 C 327.200 263.468,327.009 263.200,326.776 263.200 C 326.543 263.200,326.481 262.992,326.638 262.738 C 326.807 262.465,326.749 262.384,326.496 262.541 C 326.261 262.686,325.977 262.579,325.866 262.302 C 325.728 261.961,325.653 261.996,325.632 262.411 M70.524 265.773 C 70.262 266.071,70.157 266.424,70.291 266.557 C 70.740 267.007,71.029 266.805,71.090 266.000 C 71.160 265.066,71.148 265.061,70.524 265.773 M327.232 265.611 C 327.214 265.947,327.560 266.530,328.000 266.907 C 328.669 267.480,328.800 267.495,328.800 266.996 C 328.800 266.668,328.609 266.400,328.376 266.400 C 328.143 266.400,328.081 266.192,328.238 265.938 C 328.407 265.665,328.349 265.584,328.096 265.741 C 327.861 265.886,327.577 265.779,327.466 265.502 C 327.328 265.161,327.253 265.196,327.232 265.611 M69.410 268.370 C 69.265 268.826,68.978 269.200,68.773 269.200 C 68.568 269.200,68.400 269.380,68.400 269.600 C 68.400 269.820,68.551 270.000,68.736 270.000 C 69.128 270.000,70.115 267.982,69.851 267.718 C 69.753 267.620,69.554 267.913,69.410 268.370 M329.013 268.779 C 328.880 268.994,329.137 269.537,329.585 269.985 C 330.214 270.614,330.400 270.663,330.400 270.200 C 330.400 269.870,330.209 269.600,329.976 269.600 C 329.743 269.600,329.656 269.432,329.783 269.228 C 329.909 269.023,329.843 268.750,329.634 268.621 C 329.426 268.492,329.146 268.563,329.013 268.779 M67.169 271.676 C 66.884 272.828,66.947 273.119,67.439 272.930 C 68.095 272.678,68.169 272.152,67.600 271.800 C 67.380 271.664,67.186 271.608,67.169 271.676 M330.600 272.000 C 330.446 272.249,330.383 272.492,330.460 272.540 C 330.537 272.587,330.960 272.890,331.400 273.213 C 332.156 273.768,332.167 273.758,331.600 273.039 C 331.270 272.620,331.060 272.200,331.133 272.105 C 331.207 272.011,331.180 271.846,331.073 271.740 C 330.967 271.634,330.754 271.751,330.600 272.000 M66.400 274.757 C 66.400 275.027,66.192 275.119,65.938 274.962 C 65.652 274.785,65.585 274.852,65.762 275.138 C 65.919 275.392,65.857 275.600,65.624 275.600 C 65.391 275.600,65.200 275.780,65.200 276.000 C 65.200 276.220,65.374 276.400,65.586 276.400 C 66.071 276.400,66.946 274.812,66.632 274.499 C 66.505 274.371,66.400 274.487,66.400 274.757 M332.000 275.557 C 332.000 275.984,333.225 276.508,333.524 276.209 C 333.639 276.094,333.513 276.000,333.243 276.000 C 332.973 276.000,332.864 275.820,333.000 275.600 C 333.136 275.380,332.967 275.200,332.624 275.200 C 332.281 275.200,332.000 275.361,332.000 275.557 M64.800 278.024 C 64.800 278.257,64.592 278.319,64.338 278.162 C 64.052 277.985,63.985 278.052,64.162 278.338 C 64.319 278.592,64.278 278.800,64.070 278.800 C 63.863 278.800,63.589 279.198,63.462 279.683 C 63.258 280.466,63.344 280.436,64.216 279.421 C 65.138 278.348,65.460 277.600,65.000 277.600 C 64.890 277.600,64.800 277.791,64.800 278.024 M333.776 278.438 C 333.493 278.896,334.269 279.609,335.000 279.562 C 335.220 279.548,335.174 279.446,334.898 279.334 C 334.621 279.223,334.489 278.979,334.604 278.793 C 334.719 278.607,334.643 278.350,334.434 278.221 C 334.226 278.092,333.930 278.190,333.776 278.438 M62.753 281.100 C 62.727 281.265,62.727 281.535,62.753 281.700 C 62.779 281.865,62.620 282.000,62.400 282.000 C 62.180 282.000,62.005 282.315,62.012 282.700 C 62.024 283.361,62.047 283.362,62.427 282.708 C 62.649 282.328,62.808 281.898,62.781 281.753 C 62.754 281.608,62.972 281.337,63.266 281.151 C 63.665 280.898,63.674 280.811,63.300 280.806 C 63.025 280.803,62.779 280.935,62.753 281.100 M335.600 282.200 C 335.874 282.530,336.301 282.786,336.549 282.768 C 336.830 282.749,336.811 282.660,336.498 282.534 C 336.221 282.423,336.097 282.167,336.221 281.966 C 336.345 281.765,336.145 281.600,335.775 281.600 C 335.222 281.600,335.191 281.707,335.600 282.200 M336.412 283.320 C 336.396 283.749,337.570 286.000,337.810 286.000 C 338.059 286.000,337.867 285.057,337.566 284.800 C 337.437 284.690,337.127 284.240,336.878 283.800 C 336.628 283.360,336.419 283.144,336.412 283.320 M61.150 284.120 C 61.123 284.274,61.078 284.565,61.050 284.767 C 61.023 284.968,60.865 285.268,60.700 285.433 C 59.958 286.175,60.495 286.343,61.278 285.613 C 61.958 284.979,62.048 284.688,61.678 284.318 C 61.415 284.055,61.178 283.966,61.150 284.120 M59.202 287.200 C 58.833 288.404,58.852 289.329,59.233 288.685 C 59.466 288.292,59.568 287.752,59.460 287.485 C 59.352 287.218,59.236 287.090,59.202 287.200 M58.400 290.424 C 58.400 290.657,58.192 290.719,57.938 290.562 C 57.652 290.385,57.585 290.452,57.762 290.738 C 57.919 290.992,57.857 291.200,57.624 291.200 C 57.391 291.200,57.214 291.605,57.232 292.100 C 57.253 292.699,57.341 292.802,57.496 292.407 C 57.624 292.081,57.970 291.573,58.264 291.279 C 58.793 290.750,58.990 290.000,58.600 290.000 C 58.490 290.000,58.400 290.191,58.400 290.424 M344.971 300.609 C 345.395 300.929,345.840 301.094,345.959 300.974 C 346.210 300.723,345.194 300.009,344.600 300.019 C 344.380 300.022,344.547 300.288,344.971 300.609 M347.232 304.674 C 347.161 305.737,348.015 307.198,348.690 307.168 C 349.113 307.150,349.197 307.055,348.898 306.934 C 348.621 306.823,348.514 306.539,348.659 306.304 C 348.808 306.063,348.737 305.992,348.496 306.141 C 348.255 306.290,347.893 305.924,347.666 305.302 C 347.444 304.696,347.249 304.413,347.232 304.674 M47.232 312.324 C 47.213 312.626,46.989 312.726,46.700 312.559 C 46.425 312.401,46.329 312.414,46.486 312.588 C 46.643 312.763,46.576 313.287,46.337 313.753 C 45.927 314.550,45.953 314.546,46.779 313.686 C 47.262 313.183,47.569 312.553,47.460 312.286 C 47.316 311.929,47.255 311.939,47.232 312.324 M45.515 315.652 C 45.138 316.047,44.994 316.472,45.195 316.597 C 45.395 316.721,45.763 316.442,46.012 315.977 C 46.597 314.884,46.381 314.743,45.515 315.652 M43.841 318.867 C 43.955 319.050,43.857 319.200,43.624 319.200 C 43.391 319.200,43.200 319.386,43.200 319.614 C 43.200 319.895,43.458 319.890,44.000 319.600 C 44.936 319.099,45.051 318.533,44.218 318.533 C 43.897 318.533,43.728 318.683,43.841 318.867 M42.002 321.600 C 41.633 322.804,41.652 323.729,42.033 323.085 C 42.266 322.692,42.368 322.152,42.260 321.885 C 42.152 321.618,42.036 321.490,42.002 321.600 M361.613 334.137 C 361.606 334.322,361.960 334.931,362.400 335.491 C 362.840 336.050,363.200 336.324,363.200 336.098 C 363.200 335.600,361.632 333.661,361.613 334.137 M363.400 337.600 C 363.536 337.820,363.917 338.000,364.247 338.000 C 364.577 338.000,364.736 337.820,364.600 337.600 C 364.464 337.380,364.083 337.200,363.753 337.200 C 363.423 337.200,363.264 337.380,363.400 337.600 M366.643 343.531 C 366.514 343.739,366.681 344.135,367.014 344.412 C 367.829 345.088,368.060 344.771,367.406 343.875 C 367.115 343.478,366.772 343.323,366.643 343.531 M29.862 346.731 C 29.133 347.537,28.972 348.188,29.598 347.801 C 30.015 347.543,30.939 346.000,30.676 346.000 C 30.592 346.000,30.226 346.329,29.862 346.731 M27.970 349.767 C 27.954 349.785,27.860 350.239,27.761 350.776 C 27.663 351.312,27.633 351.672,27.695 351.576 C 27.758 351.479,28.122 351.025,28.506 350.567 C 29.050 349.917,28.530 349.139,27.970 349.767 M26.799 352.934 C 26.470 353.192,26.144 353.672,26.075 354.001 C 25.991 354.402,26.248 354.306,26.852 353.711 C 27.826 352.753,27.785 352.163,26.799 352.934 M371.543 353.500 C 372.044 354.215,372.539 354.800,372.641 354.800 C 372.987 354.800,372.050 353.340,371.337 352.767 C 370.836 352.365,370.896 352.578,371.543 353.500 M372.840 355.800 C 372.828 356.020,373.186 356.650,373.636 357.200 C 374.292 358.003,374.372 358.033,374.041 357.353 C 373.814 356.887,373.757 356.363,373.914 356.188 C 374.071 356.014,373.990 355.992,373.734 356.138 C 373.478 356.285,373.177 356.179,373.066 355.902 C 372.954 355.626,372.853 355.580,372.840 355.800 M23.400 359.506 C 23.036 359.774,22.648 360.800,22.911 360.800 C 22.972 360.800,23.330 360.440,23.707 360.000 C 24.377 359.217,24.194 358.923,23.400 359.506 M19.396 368.407 C 19.258 368.630,18.932 368.691,18.672 368.542 C 18.413 368.394,18.333 368.419,18.497 368.599 C 18.660 368.779,18.593 369.168,18.348 369.463 C 18.103 369.758,18.059 369.994,18.251 369.987 C 18.611 369.974,20.191 368.000,19.842 368.000 C 19.735 368.000,19.534 368.183,19.396 368.407 M378.800 368.241 C 378.800 368.360,379.057 368.714,379.371 369.029 C 380.101 369.758,380.436 369.759,380.157 369.031 C 379.944 368.476,378.800 367.811,378.800 368.241 M17.300 371.488 C 16.693 371.705,16.629 372.800,17.224 372.800 C 17.457 372.800,17.545 372.635,17.421 372.434 C 17.297 372.233,17.421 371.988,17.698 371.889 C 17.974 371.790,18.110 371.620,18.000 371.510 C 17.890 371.400,17.575 371.390,17.300 371.488 M382.279 374.654 C 382.147 374.787,382.308 375.165,382.638 375.495 C 383.415 376.272,383.684 376.003,383.028 375.106 C 382.749 374.724,382.412 374.521,382.279 374.654 M383.843 377.931 C 383.714 378.139,383.881 378.535,384.214 378.812 C 385.029 379.488,385.260 379.171,384.606 378.275 C 384.315 377.878,383.972 377.723,383.843 377.931 M12.800 380.913 C 12.470 381.181,12.147 381.760,12.083 382.200 C 11.960 383.048,12.299 382.721,13.227 381.100 C 13.696 380.282,13.618 380.248,12.800 380.913 M11.199 384.133 C 10.870 384.390,10.538 384.960,10.461 385.400 C 10.348 386.054,10.483 385.996,11.207 385.079 C 12.165 383.865,12.161 383.383,11.199 384.133 M105.933 388.300 C 157.486 388.356,241.726 388.356,293.133 388.300 C 344.540 388.244,302.360 388.198,199.400 388.198 C 96.440 388.198,54.380 388.244,105.933 388.300 " stroke="none" fill="#091a72" fill-rule="evenodd"></path><path id="path4" d="M197.885 13.245 C 197.284 13.930,196.679 14.965,196.540 15.545 C 196.401 16.125,195.953 16.922,195.544 17.316 C 195.135 17.709,194.800 18.564,194.800 19.216 C 194.800 19.972,194.595 20.400,194.232 20.400 C 193.916 20.400,193.538 20.977,193.380 21.700 C 193.224 22.415,192.759 23.429,192.348 23.954 C 191.937 24.479,191.600 25.222,191.600 25.605 C 191.600 25.988,191.342 26.517,191.026 26.779 C 190.710 27.041,190.340 27.764,190.203 28.386 C 190.066 29.008,189.605 29.834,189.177 30.221 C 188.750 30.607,188.400 31.324,188.400 31.813 C 188.400 32.302,188.130 32.926,187.800 33.200 C 187.470 33.474,187.200 34.001,187.200 34.371 C 187.200 34.742,186.756 35.646,186.213 36.382 C 185.671 37.118,185.314 37.860,185.420 38.032 C 185.526 38.204,185.295 38.583,184.907 38.873 C 184.245 39.366,184.047 39.784,183.826 41.155 C 183.777 41.461,183.436 41.931,183.068 42.199 C 182.701 42.468,182.400 43.162,182.400 43.741 C 182.400 44.360,182.071 44.999,181.600 45.293 C 181.144 45.578,180.800 46.226,180.800 46.800 C 180.800 47.374,180.456 48.022,180.000 48.307 C 179.487 48.628,179.200 49.240,179.200 50.016 C 179.200 50.699,178.950 51.321,178.624 51.446 C 178.308 51.567,177.924 52.237,177.771 52.933 C 177.618 53.630,177.157 54.435,176.746 54.723 C 176.336 55.010,176.000 55.693,176.000 56.239 C 176.000 56.786,175.640 57.620,175.200 58.092 C 174.760 58.564,174.400 59.218,174.400 59.544 C 174.400 59.870,174.122 60.444,173.782 60.819 C 173.443 61.195,173.076 61.994,172.967 62.595 C 172.857 63.197,172.520 63.937,172.217 64.240 C 171.914 64.544,171.546 65.335,171.400 65.999 C 171.254 66.664,170.968 67.104,170.765 66.978 C 170.362 66.729,170.085 67.277,169.875 68.733 C 169.801 69.246,169.497 69.817,169.199 70.001 C 168.900 70.185,168.599 70.620,168.528 70.968 C 168.458 71.316,168.341 71.895,168.268 72.255 C 168.196 72.616,167.881 73.111,167.568 73.355 C 167.256 73.600,166.944 74.250,166.876 74.800 C 166.808 75.350,166.403 76.099,165.976 76.464 C 165.549 76.829,165.200 77.551,165.200 78.068 C 165.200 78.585,164.840 79.232,164.400 79.507 C 163.900 79.819,163.600 80.440,163.600 81.161 C 163.600 81.795,163.347 82.412,163.038 82.530 C 162.728 82.649,162.347 83.343,162.191 84.073 C 162.035 84.803,161.568 85.722,161.153 86.116 C 160.739 86.509,160.400 87.184,160.400 87.616 C 160.400 88.047,160.040 88.760,159.600 89.200 C 159.160 89.640,158.800 90.360,158.800 90.800 C 158.800 91.240,158.634 91.600,158.431 91.600 C 158.228 91.600,157.843 92.265,157.574 93.077 C 157.306 93.890,156.752 94.914,156.343 95.353 C 155.935 95.792,155.600 96.539,155.600 97.013 C 155.600 97.488,155.240 98.202,154.800 98.600 C 154.360 98.998,154.000 99.724,154.000 100.213 C 154.000 100.702,153.730 101.326,153.400 101.600 C 153.070 101.874,152.800 102.526,152.800 103.049 C 152.800 103.572,152.634 104.000,152.431 104.000 C 152.026 104.000,149.600 108.636,149.600 109.410 C 149.600 109.675,149.240 110.350,148.800 110.909 C 148.360 111.469,148.000 112.303,148.000 112.763 C 148.000 113.237,147.742 113.600,147.405 113.600 C 147.021 113.600,146.720 114.160,146.558 115.175 C 146.419 116.042,146.074 116.840,145.791 116.948 C 145.507 117.057,145.150 117.716,144.997 118.414 C 144.844 119.111,144.377 120.023,143.959 120.441 C 143.542 120.858,143.200 121.560,143.200 122.000 C 143.200 122.440,142.840 123.160,142.400 123.600 C 141.960 124.040,141.600 124.760,141.600 125.200 C 141.600 125.640,141.427 126.000,141.216 126.000 C 141.005 126.000,140.617 126.717,140.355 127.594 C 140.092 128.470,139.545 129.488,139.139 129.856 C 138.732 130.223,138.400 130.952,138.400 131.475 C 138.400 131.997,138.130 132.529,137.800 132.655 C 137.470 132.782,137.200 133.335,137.200 133.885 C 137.200 134.435,136.750 135.419,136.200 136.073 C 135.650 136.727,135.200 137.608,135.200 138.031 C 135.200 138.454,134.968 138.800,134.685 138.800 C 134.402 138.800,134.141 139.194,134.104 139.676 C 134.068 140.158,133.670 141.050,133.219 141.660 C 132.769 142.269,132.400 143.182,132.400 143.688 C 132.400 144.194,132.040 144.832,131.600 145.107 C 131.156 145.385,130.800 146.040,130.800 146.581 C 130.800 147.116,130.485 147.790,130.100 148.077 C 129.715 148.365,129.340 149.110,129.267 149.733 C 129.194 150.356,128.789 151.211,128.367 151.633 C 127.945 152.055,127.600 152.670,127.600 153.000 C 127.600 153.330,127.240 153.960,126.800 154.400 C 126.360 154.840,126.000 155.650,126.000 156.200 C 126.000 156.750,125.834 157.200,125.631 157.200 C 125.428 157.200,125.048 157.875,124.787 158.700 C 124.526 159.525,124.091 160.380,123.822 160.600 C 123.553 160.820,123.204 161.517,123.047 162.148 C 122.889 162.780,122.491 163.567,122.161 163.897 C 121.831 164.226,121.454 165.030,121.323 165.683 C 121.193 166.335,120.860 166.956,120.582 167.062 C 120.305 167.168,119.961 167.882,119.817 168.649 C 119.673 169.415,119.313 170.135,119.017 170.249 C 118.721 170.362,118.363 171.073,118.221 171.828 C 118.080 172.582,117.740 173.200,117.467 173.200 C 117.194 173.200,116.927 173.772,116.873 174.471 C 116.818 175.197,116.439 175.978,115.988 176.293 C 115.515 176.625,115.200 177.305,115.200 177.996 C 115.200 178.748,114.953 179.224,114.487 179.372 C 114.082 179.501,113.738 180.045,113.689 180.634 C 113.642 181.204,113.242 182.128,112.802 182.689 C 112.361 183.249,112.000 184.044,112.000 184.454 C 112.000 184.864,111.640 185.560,111.200 186.000 C 110.760 186.440,110.400 187.160,110.400 187.600 C 110.400 188.042,110.133 188.400,109.805 188.400 C 109.420 188.400,109.119 188.965,108.954 190.000 C 108.799 190.965,108.480 191.600,108.149 191.600 C 107.847 191.600,107.578 191.780,107.550 192.000 C 107.522 192.220,107.455 192.580,107.400 192.800 C 107.345 193.020,107.278 193.560,107.250 194.000 C 107.222 194.440,106.949 194.800,106.643 194.800 C 106.013 194.800,105.600 195.647,105.600 196.936 C 105.600 197.416,105.240 198.032,104.800 198.307 C 104.360 198.582,104.000 199.178,104.000 199.632 C 104.000 200.086,103.721 200.736,103.380 201.077 C 103.040 201.418,102.654 202.230,102.523 202.883 C 102.393 203.535,102.042 204.163,101.743 204.277 C 101.444 204.392,101.200 204.916,101.200 205.443 C 101.200 205.969,100.840 206.760,100.400 207.200 C 99.960 207.640,99.592 208.135,99.583 208.300 C 99.533 209.148,99.077 210.400,98.817 210.400 C 98.655 210.400,98.230 211.075,97.874 211.900 C 97.518 212.725,97.062 213.670,96.861 214.000 C 96.101 215.245,94.800 218.310,94.800 218.855 C 94.800 219.167,94.440 219.730,94.000 220.107 C 93.560 220.484,93.200 221.244,93.200 221.796 C 93.200 222.418,92.974 222.800,92.605 222.800 C 92.220 222.800,91.919 223.365,91.754 224.400 C 91.599 225.365,91.280 226.000,90.949 226.000 C 90.647 226.000,90.385 226.135,90.367 226.300 C 90.166 228.130,89.825 229.047,89.176 229.502 C 88.707 229.830,88.400 230.511,88.400 231.223 C 88.400 231.986,88.195 232.400,87.818 232.400 C 87.470 232.400,87.131 232.962,86.974 233.800 C 86.829 234.570,86.563 235.200,86.382 235.200 C 86.068 235.200,85.559 236.367,85.350 237.570 C 85.295 237.884,84.989 238.286,84.671 238.464 C 84.352 238.643,83.971 239.431,83.824 240.215 C 83.676 241.000,83.296 241.742,82.978 241.864 C 82.660 241.986,82.400 242.516,82.400 243.043 C 82.400 243.569,82.040 244.360,81.600 244.800 C 81.160 245.240,80.799 245.825,80.797 246.100 C 80.796 246.375,80.437 247.140,80.000 247.800 C 79.563 248.460,79.204 249.365,79.203 249.811 C 79.201 250.257,78.840 250.930,78.400 251.307 C 77.960 251.684,77.600 252.401,77.600 252.900 C 77.600 253.399,77.240 254.032,76.800 254.307 C 76.315 254.610,76.000 255.240,76.000 255.907 C 76.000 256.574,75.685 257.204,75.200 257.507 C 74.690 257.826,74.400 258.440,74.400 259.203 C 74.400 259.862,74.211 260.400,73.981 260.400 C 73.495 260.400,72.380 262.844,72.659 263.296 C 72.763 263.463,72.581 263.600,72.255 263.600 C 71.730 263.600,70.917 265.685,71.124 266.500 C 71.166 266.665,70.952 266.800,70.650 266.800 C 70.347 266.800,69.996 267.318,69.870 267.952 C 69.743 268.585,69.382 269.360,69.068 269.674 C 68.754 269.988,68.375 270.805,68.224 271.489 C 68.074 272.173,67.692 272.833,67.376 272.954 C 67.059 273.076,66.800 273.631,66.800 274.187 C 66.800 274.744,66.440 275.560,66.000 276.000 C 65.560 276.440,65.200 277.147,65.200 277.571 C 65.200 277.996,64.972 278.581,64.694 278.871 C 63.874 279.729,62.000 283.608,62.000 284.449 C 62.000 284.876,61.737 285.326,61.415 285.450 C 61.094 285.573,60.710 286.054,60.562 286.518 C 60.415 286.983,60.053 287.604,59.758 287.899 C 59.463 288.195,59.029 289.148,58.795 290.018 C 58.561 290.888,58.210 291.600,58.016 291.600 C 57.822 291.600,57.545 292.140,57.400 292.800 C 57.255 293.460,56.998 294.000,56.829 294.000 C 56.660 294.000,56.223 294.675,55.859 295.500 C 55.495 296.325,54.938 297.450,54.620 298.000 C 54.303 298.550,53.945 299.270,53.824 299.600 C 53.704 299.930,53.453 300.470,53.267 300.800 C 51.930 303.171,50.800 305.616,50.800 306.139 C 50.800 306.481,50.514 306.920,50.164 307.116 C 49.814 307.312,49.559 307.546,49.597 307.636 C 49.792 308.102,49.059 309.969,48.614 310.139 C 48.332 310.247,47.980 310.981,47.832 311.768 C 47.685 312.556,47.399 313.200,47.197 313.200 C 46.996 313.200,46.634 313.929,46.394 314.821 C 46.154 315.712,45.736 316.526,45.465 316.630 C 45.195 316.734,44.934 317.310,44.886 317.910 C 44.837 318.509,44.495 319.225,44.124 319.499 C 43.753 319.774,43.392 320.372,43.323 320.830 C 43.253 321.287,42.918 321.939,42.578 322.279 C 42.239 322.619,41.857 323.415,41.730 324.048 C 41.604 324.682,41.356 325.200,41.181 325.200 C 41.006 325.200,40.643 325.865,40.374 326.677 C 40.106 327.490,39.552 328.514,39.143 328.953 C 38.735 329.392,38.400 329.925,38.400 330.137 C 38.400 330.754,36.438 334.729,35.999 335.000 C 35.780 335.136,35.600 335.584,35.600 335.995 C 35.600 336.406,35.339 337.004,35.019 337.324 C 34.700 337.643,34.550 338.016,34.686 338.152 C 34.822 338.289,34.738 338.400,34.498 338.400 C 34.259 338.400,33.948 338.928,33.806 339.572 C 33.664 340.217,33.290 340.959,32.974 341.221 C 32.658 341.483,32.400 342.107,32.400 342.606 C 32.400 343.106,32.119 343.622,31.775 343.754 C 31.431 343.886,31.261 344.176,31.398 344.397 C 31.535 344.619,31.457 344.800,31.224 344.800 C 30.991 344.800,30.800 345.136,30.800 345.546 C 30.800 345.956,30.440 346.750,30.000 347.309 C 29.560 347.869,29.200 348.629,29.200 349.000 C 29.200 349.371,28.840 350.131,28.400 350.691 C 27.960 351.250,27.600 352.016,27.600 352.392 C 27.600 352.768,27.240 353.402,26.800 353.800 C 26.360 354.198,26.000 354.856,26.000 355.262 C 26.000 355.668,25.640 356.360,25.200 356.800 C 24.760 357.240,24.400 357.968,24.400 358.417 C 24.400 358.866,24.040 359.620,23.600 360.092 C 23.160 360.564,22.800 361.255,22.800 361.626 C 22.800 361.998,22.530 362.526,22.200 362.800 C 21.870 363.074,21.600 363.612,21.600 363.995 C 21.600 364.378,21.242 365.148,20.804 365.704 C 20.366 366.261,19.950 367.050,19.879 367.458 C 19.809 367.866,19.358 368.830,18.877 369.600 C 18.396 370.370,18.002 371.225,18.001 371.500 C 18.001 371.775,17.809 372.000,17.576 372.000 C 17.343 372.000,17.264 372.180,17.400 372.400 C 17.536 372.620,17.457 372.800,17.224 372.800 C 16.991 372.800,16.800 373.138,16.800 373.551 C 16.800 373.964,16.532 374.524,16.204 374.796 C 15.877 375.068,15.707 375.450,15.828 375.645 C 15.949 375.840,15.857 376.000,15.624 376.000 C 15.391 376.000,15.200 376.431,15.200 376.957 C 15.200 377.484,14.919 378.022,14.575 378.154 C 14.231 378.286,14.061 378.576,14.198 378.797 C 14.335 379.019,14.257 379.200,14.024 379.200 C 13.791 379.200,13.600 379.479,13.600 379.821 C 13.600 380.352,12.800 382.122,11.529 384.400 C 10.515 386.218,10.318 386.808,10.535 387.375 C 10.753 387.942,28.560 387.991,199.288 387.900 L 387.800 387.800 387.930 386.665 C 388.008 385.985,387.776 385.215,387.352 384.747 C 386.962 384.316,386.586 383.567,386.514 383.082 C 386.443 382.597,386.118 382.000,385.793 381.756 C 385.467 381.512,385.200 381.041,385.200 380.710 C 385.200 380.379,384.825 379.631,384.366 379.048 C 383.907 378.465,383.359 377.360,383.147 376.594 C 382.936 375.827,382.591 375.200,382.381 375.200 C 382.172 375.200,382.000 374.763,382.000 374.229 C 382.000 373.694,381.723 372.981,381.385 372.643 C 381.047 372.305,380.487 371.347,380.140 370.514 C 379.794 369.681,379.384 368.910,379.230 368.800 C 379.077 368.690,378.782 368.001,378.575 367.270 C 378.369 366.538,378.027 365.962,377.815 365.990 C 377.603 366.018,377.238 365.266,377.003 364.320 C 376.760 363.346,376.364 362.643,376.088 362.700 C 375.790 362.761,375.600 362.332,375.600 361.600 C 375.600 360.940,375.409 360.400,375.176 360.400 C 374.943 360.400,374.865 360.219,375.002 359.997 C 375.139 359.776,374.969 359.486,374.625 359.354 C 374.281 359.222,374.000 358.868,374.000 358.566 C 374.000 358.265,373.467 357.032,372.815 355.827 C 371.015 352.501,369.900 350.166,369.221 348.300 C 369.000 347.695,368.650 347.200,368.442 347.200 C 368.234 347.200,367.948 346.672,367.806 346.028 C 367.664 345.383,367.290 344.641,366.974 344.379 C 366.658 344.117,366.400 343.502,366.400 343.012 C 366.400 342.523,366.040 341.707,365.600 341.200 C 365.160 340.693,364.800 339.943,364.800 339.535 C 364.800 339.126,364.440 338.484,364.000 338.107 C 363.560 337.730,363.200 337.216,363.200 336.965 C 363.200 336.714,362.840 336.050,362.400 335.491 C 361.960 334.931,361.600 334.097,361.600 333.637 C 361.600 333.177,361.240 332.440,360.800 332.000 C 360.360 331.560,360.000 330.778,360.000 330.262 C 360.000 329.746,359.640 328.998,359.200 328.600 C 358.760 328.202,358.400 327.494,358.400 327.027 C 358.400 326.560,358.040 325.870,357.600 325.493 C 356.910 324.902,356.617 324.106,356.737 323.148 C 356.754 323.009,356.415 322.576,355.984 322.186 C 355.553 321.795,355.200 321.297,355.200 321.078 C 355.200 320.491,353.110 316.286,352.513 315.671 C 352.231 315.381,352.000 314.809,352.000 314.400 C 352.000 313.991,351.757 313.414,351.460 313.118 C 351.164 312.821,350.700 311.908,350.429 311.089 C 350.159 310.270,349.786 309.600,349.601 309.600 C 349.415 309.600,349.148 309.075,349.007 308.433 C 348.866 307.792,348.509 307.174,348.213 307.060 C 347.917 306.947,347.545 306.259,347.385 305.533 C 347.226 304.806,346.849 304.029,346.548 303.806 C 346.248 303.583,345.961 302.890,345.911 302.266 C 345.861 301.642,345.500 300.961,345.110 300.752 C 344.719 300.543,344.400 299.928,344.400 299.386 C 344.400 298.844,344.040 298.040,343.600 297.600 C 343.160 297.160,342.799 296.485,342.797 296.100 C 342.796 295.715,342.437 294.860,342.000 294.200 C 341.563 293.540,341.204 292.742,341.203 292.426 C 341.201 292.110,340.845 291.473,340.411 291.011 C 339.976 290.549,339.556 289.747,339.477 289.229 C 339.398 288.711,339.033 288.068,338.667 287.799 C 338.300 287.531,337.999 287.152,337.998 286.956 C 337.996 286.508,336.168 282.884,335.596 282.196 C 335.362 281.913,335.089 281.258,334.990 280.741 C 334.890 280.223,334.561 279.617,334.257 279.394 C 333.953 279.171,333.574 278.394,333.415 277.667 C 333.255 276.941,332.872 276.249,332.562 276.130 C 332.253 276.012,332.000 275.395,332.000 274.761 C 332.000 274.040,331.700 273.419,331.200 273.107 C 330.760 272.832,330.400 272.201,330.400 271.704 C 330.400 271.207,330.040 270.440,329.600 270.000 C 329.160 269.560,328.800 268.838,328.800 268.396 C 328.800 267.954,328.440 267.284,328.000 266.907 C 327.560 266.530,327.200 265.819,327.200 265.327 C 327.200 264.834,326.857 264.109,326.439 263.716 C 326.020 263.322,325.615 262.554,325.539 262.009 C 325.462 261.463,325.085 260.698,324.700 260.309 C 324.315 259.919,324.000 259.264,324.000 258.854 C 324.000 258.444,323.640 257.650,323.200 257.091 C 322.760 256.531,322.400 255.815,322.400 255.498 C 322.400 255.181,322.040 254.507,321.600 254.000 C 321.160 253.493,320.800 252.747,320.800 252.343 C 320.800 251.940,320.497 251.255,320.126 250.822 C 319.755 250.389,319.409 249.741,319.356 249.382 C 319.304 249.023,318.971 248.410,318.618 248.020 C 318.264 247.629,317.893 246.880,317.792 246.355 C 317.692 245.830,317.337 245.200,317.005 244.956 C 316.672 244.712,316.400 244.127,316.400 243.656 C 316.400 243.185,316.040 242.440,315.600 242.000 C 315.160 241.560,314.800 240.760,314.800 240.223 C 314.800 239.685,314.453 239.002,314.028 238.705 C 313.604 238.407,313.124 237.632,312.962 236.982 C 312.800 236.332,312.428 235.620,312.135 235.400 C 311.842 235.180,311.560 234.481,311.509 233.846 C 311.458 233.211,311.098 232.493,310.708 232.250 C 310.312 232.002,310.000 231.327,310.000 230.718 C 310.000 230.038,309.699 229.467,309.200 229.200 C 308.742 228.955,308.400 228.362,308.400 227.814 C 308.400 227.288,308.154 226.611,307.853 226.310 C 307.351 225.808,306.667 224.242,306.620 223.485 C 306.609 223.312,306.343 223.012,306.030 222.818 C 305.716 222.624,305.397 222.055,305.320 221.554 C 305.244 221.052,304.915 220.348,304.590 219.989 C 304.266 219.631,304.000 219.060,304.000 218.722 C 304.000 218.384,303.651 217.664,303.225 217.122 C 302.798 216.580,302.322 215.630,302.167 215.011 C 302.011 214.391,301.550 213.550,301.142 213.142 C 300.734 212.734,300.400 212.034,300.400 211.587 C 300.400 211.141,300.150 210.679,299.845 210.562 C 299.540 210.445,299.188 209.842,299.065 209.223 C 298.941 208.603,298.591 207.848,298.287 207.544 C 297.983 207.241,297.614 206.511,297.467 205.924 C 297.319 205.337,296.951 204.608,296.648 204.305 C 296.345 204.002,295.975 203.195,295.824 202.511 C 295.674 201.827,295.292 201.167,294.976 201.046 C 294.650 200.921,294.400 200.299,294.400 199.616 C 294.400 198.840,294.113 198.228,293.600 197.907 C 293.160 197.632,292.800 197.023,292.800 196.553 C 292.800 196.083,292.542 195.483,292.226 195.221 C 291.910 194.959,291.535 194.215,291.393 193.568 C 291.251 192.921,290.841 192.098,290.483 191.740 C 290.124 191.381,289.779 190.843,289.715 190.544 C 289.652 190.245,289.541 189.710,289.470 189.355 C 289.398 189.000,289.038 188.541,288.670 188.335 C 288.301 188.129,288.000 187.631,288.000 187.229 C 288.000 186.827,287.742 186.283,287.426 186.021 C 287.110 185.759,286.738 185.030,286.600 184.400 C 286.462 183.770,286.090 183.041,285.774 182.779 C 285.458 182.517,285.200 181.988,285.200 181.605 C 285.200 181.222,284.828 180.436,284.374 179.858 C 283.920 179.281,283.459 178.312,283.349 177.706 C 283.239 177.099,282.890 176.458,282.574 176.282 C 282.258 176.105,282.000 175.609,282.000 175.180 C 282.000 174.751,281.665 174.065,281.255 173.655 C 280.845 173.245,280.387 172.255,280.237 171.455 C 280.071 170.574,279.734 170.000,279.382 170.000 C 279.028 170.000,278.800 169.608,278.800 169.000 C 278.800 168.450,278.465 167.665,278.055 167.255 C 277.645 166.845,277.187 165.855,277.037 165.055 C 276.884 164.239,276.528 163.600,276.226 163.600 C 275.927 163.600,275.571 162.970,275.422 162.179 C 275.276 161.397,274.896 160.658,274.578 160.536 C 274.260 160.414,274.000 159.882,274.000 159.353 C 274.000 158.825,273.640 158.084,273.200 157.707 C 272.760 157.330,272.400 156.610,272.400 156.107 C 272.400 155.604,272.040 154.884,271.600 154.507 C 271.160 154.130,270.800 153.341,270.800 152.754 C 270.800 152.166,270.530 151.582,270.200 151.455 C 269.870 151.329,269.600 150.884,269.600 150.466 C 269.600 150.049,269.240 149.250,268.800 148.691 C 268.360 148.131,268.000 147.411,268.000 147.091 C 268.000 146.770,267.638 146.048,267.196 145.486 C 266.755 144.925,266.284 143.922,266.152 143.258 C 266.019 142.594,265.660 141.955,265.355 141.838 C 265.050 141.721,264.800 141.259,264.800 140.813 C 264.800 140.366,264.458 139.658,264.041 139.241 C 263.623 138.823,263.156 137.911,263.003 137.214 C 262.850 136.516,262.489 135.856,262.202 135.745 C 261.914 135.635,261.561 134.918,261.417 134.151 C 261.273 133.385,260.896 132.658,260.578 132.536 C 260.259 132.414,260.000 131.798,260.000 131.161 C 260.000 130.440,259.700 129.819,259.200 129.507 C 258.760 129.232,258.400 128.623,258.400 128.153 C 258.400 127.683,258.139 127.082,257.820 126.817 C 257.502 126.552,257.026 125.675,256.764 124.868 C 256.502 124.061,256.042 123.256,255.743 123.080 C 255.445 122.904,255.200 122.433,255.200 122.034 C 255.200 121.635,254.840 120.850,254.400 120.291 C 253.960 119.731,253.600 118.971,253.600 118.600 C 253.600 118.229,253.240 117.469,252.800 116.909 C 252.360 116.350,252.000 115.556,252.000 115.146 C 252.000 114.736,251.640 114.040,251.200 113.600 C 250.760 113.160,250.400 112.344,250.400 111.787 C 250.400 111.231,250.141 110.676,249.824 110.554 C 249.508 110.433,249.131 109.796,248.987 109.140 C 248.843 108.483,248.476 107.851,248.173 107.734 C 247.870 107.618,247.504 106.896,247.360 106.129 C 247.217 105.363,246.869 104.648,246.589 104.540 C 246.308 104.433,245.961 103.718,245.817 102.951 C 245.673 102.185,245.296 101.458,244.978 101.336 C 244.659 101.214,244.400 100.598,244.400 99.961 C 244.400 99.240,244.100 98.619,243.600 98.307 C 243.160 98.032,242.800 97.428,242.800 96.965 C 242.800 96.502,242.440 95.707,242.000 95.200 C 241.560 94.693,241.200 93.973,241.200 93.601 C 241.200 93.229,240.858 92.614,240.440 92.236 C 240.021 91.857,239.567 90.947,239.429 90.212 C 239.291 89.478,238.936 88.784,238.640 88.671 C 238.343 88.557,237.983 87.833,237.838 87.061 C 237.693 86.289,237.372 85.591,237.124 85.508 C 236.876 85.425,236.609 84.935,236.530 84.418 C 236.451 83.901,236.117 83.281,235.789 83.039 C 235.460 82.798,235.112 82.190,235.016 81.690 C 234.920 81.189,234.473 80.310,234.021 79.736 C 233.569 79.162,233.200 78.288,233.200 77.795 C 233.200 77.302,232.930 76.674,232.600 76.400 C 232.270 76.126,232.000 75.678,232.000 75.405 C 232.000 75.132,231.667 74.479,231.261 73.954 C 230.855 73.429,230.404 72.518,230.260 71.928 C 230.117 71.338,229.751 70.608,229.448 70.305 C 229.145 70.002,228.775 69.195,228.624 68.511 C 228.474 67.827,228.118 67.177,227.832 67.068 C 227.547 66.958,227.207 66.335,227.077 65.683 C 226.946 65.030,226.560 64.218,226.220 63.877 C 225.879 63.536,225.600 62.912,225.600 62.491 C 225.600 62.069,225.240 61.398,224.800 61.000 C 224.360 60.602,224.000 59.894,224.000 59.427 C 224.000 58.960,223.640 58.270,223.200 57.893 C 222.760 57.516,222.400 56.874,222.400 56.465 C 222.400 56.057,222.040 55.307,221.600 54.800 C 221.160 54.293,220.800 53.371,220.800 52.753 C 220.800 52.032,220.508 51.472,219.989 51.194 C 219.543 50.955,219.270 50.610,219.383 50.427 C 219.497 50.244,219.222 49.627,218.774 49.057 C 218.325 48.487,217.888 47.656,217.802 47.211 C 217.716 46.766,217.386 45.906,217.068 45.301 C 216.750 44.695,216.286 43.750,216.037 43.200 C 215.788 42.650,215.148 41.480,214.616 40.600 C 214.083 39.720,213.347 38.325,212.980 37.500 C 212.613 36.675,212.153 36.000,211.957 36.000 C 211.760 36.000,211.600 35.488,211.600 34.862 C 211.600 34.232,211.243 33.401,210.800 33.000 C 210.360 32.602,210.000 31.968,210.000 31.592 C 210.000 31.216,209.640 30.450,209.200 29.891 C 208.760 29.331,208.400 28.525,208.400 28.099 C 208.400 27.673,208.040 26.998,207.600 26.600 C 207.160 26.202,206.800 25.572,206.800 25.200 C 206.800 24.828,206.440 24.198,206.000 23.800 C 205.560 23.402,205.196 22.699,205.191 22.238 C 205.186 21.777,204.830 20.950,204.400 20.400 C 203.970 19.850,203.614 19.107,203.609 18.749 C 203.604 18.391,203.342 17.883,203.026 17.621 C 202.710 17.359,202.332 16.599,202.185 15.932 C 202.038 15.264,201.622 14.390,201.259 13.988 C 200.897 13.586,200.368 12.974,200.084 12.629 C 199.369 11.757,199.133 11.824,197.885 13.245 " stroke="none" fill="#1a297c" fill-rule="evenodd"></path></g></svg>